<svg width="24" height="24" viewBox="0 0 24 24" fill="none" xmlns="http://www.w3.org/2000/svg">
<g id="Frame" clip-path="url(#clip0_10112_9287)">
<g id="Group">
<path id="Vector" d="M0.890308 9.67655C0.967871 9.77012 1.0638 9.84679 1.17216 9.90183C1.28051 9.95686 1.39901 9.9891 1.52032 9.99654H1.57712C1.72518 9.99631 1.87087 9.95934 2.00112 9.88895V16.188C2.00198 16.9675 2.63365 17.5991 3.41309 17.6H11.5854L9.25701 20.2924C8.44717 21.2284 8.54949 22.6438 9.48562 23.4537C10.4217 24.2635 11.8371 24.1612 12.647 23.2251L17.4469 17.6728C19.2126 18.1547 21.1017 17.6702 22.4174 16.3979C23.7332 15.1255 24.2809 13.2538 23.8584 11.4728C23.826 11.3334 23.7556 11.2057 23.6549 11.104C23.5543 11.0022 23.4274 10.9304 23.2883 10.8965C23.1513 10.8622 23.0074 10.8667 22.8728 10.9097C22.7382 10.9526 22.6182 11.0323 22.5264 11.1396L20.3028 13.7112L17.9481 13.668L17.5657 11.3436L19.7896 8.77286C19.8823 8.66643 19.9436 8.53643 19.9668 8.39726C19.99 8.2581 19.9743 8.11522 19.9212 7.98448C19.8674 7.85199 19.7778 7.73701 19.6626 7.65229C19.5474 7.56757 19.411 7.51642 19.2684 7.5045C18.7507 7.46154 18.2295 7.49714 17.7224 7.61009L16.0009 6.04292V2.50428C16.0002 2.00529 15.5959 1.60094 15.0969 1.60031H13.305C12.806 1.60098 12.4016 2.00533 12.401 2.50428V2.77427L9.60742 0.237508C9.26579 -0.0791692 8.73786 -0.0791692 8.39623 0.237508L0.301519 7.58658C-0.0671626 7.92779 -0.102397 8.49858 0.221523 8.88254L0.890308 9.67655ZM7.20097 16.8V12.4001C7.20097 12.1792 7.38006 12.0001 7.60095 12.0001H10.4009C10.6218 12.0001 10.8009 12.1792 10.8009 12.4001V16.8001H7.20097V16.8ZM11.6009 16.8V12.4001C11.6009 11.7374 11.0637 11.2001 10.4009 11.2001H7.60099C6.93827 11.2001 6.40101 11.7374 6.40101 12.4001V16.8001H3.41305C3.07524 16.7996 2.80151 16.5259 2.80108 16.1881V9.20221L9.00096 3.57265L15.0721 9.08895C15.0117 9.15174 14.9473 9.20894 14.8901 9.27535C13.5812 10.784 13.2575 12.9112 14.0585 14.7409L12.2773 16.8H11.6009ZM18.8144 8.28218C18.9248 8.28218 19.0356 8.28619 19.146 8.29458L16.8408 10.9601C16.8025 11.0045 16.7743 11.0568 16.7584 11.1133C16.7425 11.1697 16.7393 11.229 16.7488 11.2869L17.2156 14.1244C17.2308 14.2168 17.2778 14.3009 17.3485 14.3621C17.4193 14.4234 17.5093 14.4579 17.6028 14.4596L20.478 14.5124C20.5969 14.5147 20.7106 14.464 20.7884 14.374L23.0947 11.7069C23.4416 13.2483 22.9326 14.8572 21.7623 15.9188C20.592 16.9803 18.9412 17.3303 17.4408 16.8352C17.3656 16.8106 17.2848 16.8089 17.2086 16.8303C17.1324 16.8516 17.0643 16.8951 17.0128 16.9552L12.0409 22.7015C11.7903 22.9887 11.4362 23.165 11.0559 23.1917C10.6757 23.2184 10.3004 23.0935 10.012 22.8442C9.72371 22.5949 9.54585 22.2415 9.51739 21.8614C9.48893 21.4813 9.61218 21.1054 9.86017 20.8159L14.8329 15.0681C14.8844 15.0083 14.9172 14.9347 14.927 14.8564C14.9369 14.7781 14.9233 14.6987 14.8881 14.6281C14.5541 13.9592 14.3967 13.2161 14.4308 12.4692C14.4648 11.7224 14.6891 10.9967 15.0825 10.361C15.4759 9.72521 16.0252 9.20057 16.6784 8.83682C17.3315 8.47307 18.0668 8.2823 18.8144 8.28261V8.28218H18.8144ZM13.2009 2.50428C13.2016 2.47692 13.2128 2.45087 13.2322 2.43152C13.2515 2.41216 13.2776 2.40098 13.3049 2.40027H15.0969C15.1242 2.40098 15.1503 2.41216 15.1696 2.43152C15.189 2.45087 15.2002 2.47692 15.2009 2.50428V5.31662L13.2009 3.50065V2.50428ZM0.841098 8.17616L8.93537 0.827123C8.9532 0.809926 8.977 0.800316 9.00177 0.800316C9.02653 0.800316 9.05034 0.809926 9.06816 0.827123L16.8328 7.88019C16.4181 8.05358 16.0275 8.27985 15.6708 8.55338L9.27095 2.73789C9.19733 2.67099 9.10142 2.63392 9.00194 2.63392C8.90247 2.63392 8.80656 2.67099 8.73294 2.73789L2.12107 8.74018H2.11867L1.6411 9.17418C1.62215 9.19103 1.59764 9.20028 1.57228 9.20016C1.55865 9.19912 1.5454 9.1952 1.5334 9.18865C1.5214 9.1821 1.51093 9.17307 1.50268 9.16217L0.831886 8.3678C0.810113 8.34009 0.799059 8.30546 0.800751 8.27026C0.802443 8.23506 0.816768 8.20165 0.841098 8.17616Z" fill="#0065FF"/>
<path id="Vector_2" fill-rule="evenodd" clip-rule="evenodd" d="M11.5422 20.4831L10.8083 21.3395C10.7425 21.4204 10.711 21.5239 10.7204 21.6277C10.7298 21.7316 10.7794 21.8277 10.8587 21.8955C10.9379 21.9634 11.0405 21.9975 11.1446 21.9908C11.2487 21.9841 11.346 21.9369 11.4159 21.8594L12.1499 21.0031C12.2153 20.9221 12.2466 20.8187 12.2371 20.715C12.2276 20.6113 12.178 20.5154 12.0989 20.4477C12.0197 20.3799 11.9173 20.3458 11.8134 20.3524C11.7094 20.359 11.6122 20.4059 11.5422 20.4831Z" fill="#0065FF"/>
</g>
</g>
<defs>
<clipPath id="clip0_10112_9287">
<rect width="24" height="24" fill="white"/>
</clipPath>
</defs>
</svg>
