<svg width="24" height="24" viewBox="0 0 24 24" fill="none" xmlns="http://www.w3.org/2000/svg">
<g id="Frame" clip-path="url(#clip0_10112_9291)">
<g id="Group">
<path id="Vector" d="M11.0148 6.74345C12.2748 7.58745 14.0376 7.54345 15.5016 7.12625C15.7438 7.7485 15.9052 8.39929 15.9816 9.06264L15.9952 10.001H10.4008C10.287 10.0011 10.1746 10.0253 10.0709 10.0723C9.9673 10.1192 9.87486 10.1877 9.79979 10.2731C9.72473 10.3586 9.66875 10.4591 9.63561 10.568C9.60246 10.6768 9.59291 10.7914 9.60758 10.9042L9.97158 13.7042C9.99638 13.895 10.0891 14.0704 10.2327 14.1984C10.3763 14.3264 10.5612 14.3983 10.7536 14.401L11.9036 23.3046C11.9564 23.7026 12.2956 24.0006 12.6972 24.001H20.1044C20.2987 24.0007 20.4863 23.9297 20.6323 23.8014C20.7783 23.6731 20.8727 23.4961 20.898 23.3034L22.048 14.401C22.2401 14.3984 22.4249 14.3266 22.5685 14.1989C22.7121 14.0711 22.8049 13.896 22.83 13.7054C23.2376 10.5698 23.194 10.9454 23.194 10.9054C23.2088 10.7925 23.1994 10.6778 23.1664 10.5688C23.1333 10.4598 23.0774 10.3592 23.0023 10.2735C22.9272 10.1879 22.8347 10.1193 22.731 10.0723C22.6272 10.0253 22.5147 10.001 22.4008 10.001H16.8008L16.82 9.06425C16.8928 8.39985 17.0544 7.74824 17.3 7.12664C18.7632 7.54504 20.5268 7.58745 21.7864 6.74345C23.7064 5.45825 23.9864 2.49864 23.9988 2.37304C23.9993 2.34878 23.9975 2.32453 23.9932 2.30064C23.9909 2.23562 23.9704 2.17255 23.934 2.11864V2.11544C23.93 2.10944 23.9236 2.10664 23.9196 2.10104C23.8859 2.05278 23.8401 2.01428 23.7868 1.98944C23.7708 1.97872 23.7539 1.96935 23.7364 1.96144C23.6212 1.92144 20.8884 0.963444 18.9604 2.25424C17.2268 3.41424 16.8304 5.93425 16.7604 6.50625C16.596 6.73153 16.474 6.98486 16.4004 7.25384C16.3263 6.98394 16.2043 6.72951 16.0404 6.50265C15.9704 5.92584 15.572 3.41304 13.8404 2.25424C11.9144 0.963844 9.18158 1.92104 9.06598 1.96104C9.04846 1.96902 9.03161 1.97838 9.01558 1.98904C8.96234 2.01403 8.91656 2.0525 8.88278 2.10064C8.87878 2.10624 8.87238 2.10904 8.86838 2.11504C8.83142 2.16996 8.81051 2.2341 8.80798 2.30024C8.80314 2.32421 8.80073 2.3486 8.80078 2.37304C8.81358 2.49864 9.09518 5.45825 11.0148 6.74345ZM9.76078 3.19344L14.6928 6.49584C11.976 7.01464 10.4192 5.93584 9.76078 3.19344ZM20.1044 23.201H12.6972L11.5608 14.401H21.2408L20.1044 23.201ZM22.0368 13.601H10.7648L10.4008 10.801H22.4008L22.0368 13.601ZM18.1116 6.49464L23.0432 3.19264C22.384 5.94704 20.8192 7.00904 18.1116 6.49464ZM22.6348 2.50344L17.7048 5.80424C18.3608 3.08104 19.8968 1.98384 22.6348 2.50344ZM13.3972 2.92104C14.41 3.60104 14.8844 4.92104 15.0976 5.80664L10.1652 2.50224C11.0244 2.33784 12.3812 2.24104 13.3972 2.92104Z" fill="#0065FF"/>
<path id="Vector_2" d="M12.4 11.6H11.6C11.4939 11.6 11.3922 11.6421 11.3172 11.7172C11.2421 11.7922 11.2 11.8939 11.2 12C11.2 12.1061 11.2421 12.2078 11.3172 12.2828C11.3922 12.3579 11.4939 12.4 11.6 12.4H12.4C12.5061 12.4 12.6078 12.3579 12.6828 12.2828C12.7579 12.2078 12.8 12.1061 12.8 12C12.8 11.8939 12.7579 11.7922 12.6828 11.7172C12.6078 11.6421 12.5061 11.6 12.4 11.6ZM14 11.6C13.8939 11.6 13.7922 11.6421 13.7172 11.7172C13.6421 11.7922 13.6 11.8939 13.6 12C13.6 12.1061 13.6421 12.2078 13.7172 12.2828C13.7922 12.3579 13.8939 12.4 14 12.4H16.8C16.9061 12.4 17.0078 12.3579 17.0828 12.2828C17.1579 12.2078 17.2 12.1061 17.2 12C17.2 11.8939 17.1579 11.7922 17.0828 11.7172C17.0078 11.6421 16.9061 11.6 16.8 11.6H14ZM4.4 24C6.7632 24 8.8 17.7912 8.8 14.7428C8.8 11.9256 7.204 11.0964 5.6 10.8752V9.1896C5.84752 9.00486 6.04865 8.76506 6.1875 8.48916C6.32635 8.21327 6.3991 7.90886 6.4 7.6V2C6.4 1.46957 6.18929 0.960859 5.81421 0.585786C5.43914 0.210714 4.93043 0 4.4 0C3.86957 0 3.36086 0.210714 2.98579 0.585786C2.61071 0.960859 2.4 1.46957 2.4 2V7.6C2.4009 7.90886 2.47365 8.21327 2.6125 8.48916C2.75135 8.76506 2.95248 9.00486 3.2 9.1896V10.8752C1.596 11.0964 0 11.9256 0 14.7428C0 17.7912 2.0368 24 4.4 24ZM5.1228 11.6308C4.9128 13.5736 4.6 14.5312 4.4 14.766C4.2 14.5312 3.8872 13.5736 3.6772 11.6308C4.15819 11.5896 4.64181 11.5896 5.1228 11.6308ZM3.2 2C3.2 1.68174 3.32643 1.37652 3.55147 1.15147C3.77652 0.926428 4.08174 0.8 4.4 0.8C4.71826 0.8 5.02348 0.926428 5.24853 1.15147C5.47357 1.37652 5.6 1.68174 5.6 2V7.6C5.6 7.91826 5.47357 8.22348 5.24853 8.44853C5.02348 8.67357 4.71826 8.8 4.4 8.8C4.08174 8.8 3.77652 8.67357 3.55147 8.44853C3.32643 8.22348 3.2 7.91826 3.2 7.6V2ZM4 9.56C4.264 9.614 4.536 9.614 4.8 9.56V10.808C4.53343 10.7978 4.26657 10.7978 4 10.808V9.56ZM2.8852 11.7496C3.3012 15.6 4.0668 15.6 4.4 15.6C4.7332 15.6 5.4988 15.6 5.9148 11.7496C7.3748 12.0868 8 13.0196 8 14.7428C8 17.8048 5.92 23.2 4.4 23.2C2.88 23.2 0.8 17.8048 0.8 14.7428C0.8 13.0196 1.4252 12.0868 2.8852 11.7496Z" fill="#0065FF"/>
<path id="Vector_3" d="M4.4 2.40156C4.62091 2.40156 4.8 2.22248 4.8 2.00156C4.8 1.78065 4.62091 1.60156 4.4 1.60156C4.17909 1.60156 4 1.78065 4 2.00156C4 2.22248 4.17909 2.40156 4.4 2.40156Z" fill="#0065FF"/>
</g>
</g>
<defs>
<clipPath id="clip0_10112_9291">
<rect width="24" height="24" fill="white"/>
</clipPath>
</defs>
</svg>
