<svg width="25" height="24" viewBox="0 0 25 24" fill="none" xmlns="http://www.w3.org/2000/svg">
<g id="DotsThree">
<path id="Vector" d="M14 12C14 12.2967 13.912 12.5867 13.7472 12.8334C13.5824 13.08 13.3481 13.2723 13.074 13.3858C12.7999 13.4994 12.4983 13.5291 12.2074 13.4712C11.9164 13.4133 11.6491 13.2704 11.4393 13.0607C11.2296 12.8509 11.0867 12.5836 11.0288 12.2926C10.9709 12.0017 11.0006 11.7001 11.1142 11.426C11.2277 11.1519 11.42 10.9176 11.6666 10.7528C11.9133 10.588 12.2033 10.5 12.5 10.5C12.8978 10.5 13.2794 10.658 13.5607 10.9393C13.842 11.2206 14 11.6022 14 12ZM6.125 10.5C5.82833 10.5 5.53832 10.588 5.29165 10.7528C5.04497 10.9176 4.85271 11.1519 4.73918 11.426C4.62565 11.7001 4.59594 12.0017 4.65382 12.2926C4.7117 12.5836 4.85456 12.8509 5.06434 13.0607C5.27412 13.2704 5.54139 13.4133 5.83237 13.4712C6.12334 13.5291 6.42494 13.4994 6.69903 13.3858C6.97311 13.2723 7.20738 13.08 7.37221 12.8334C7.53703 12.5867 7.625 12.2967 7.625 12C7.625 11.6022 7.46697 11.2206 7.18566 10.9393C6.90436 10.658 6.52283 10.5 6.125 10.5ZM18.875 10.5C18.5783 10.5 18.2883 10.588 18.0416 10.7528C17.795 10.9176 17.6027 11.1519 17.4892 11.426C17.3757 11.7001 17.3459 12.0017 17.4038 12.2926C17.4617 12.5836 17.6046 12.8509 17.8143 13.0607C18.0241 13.2704 18.2914 13.4133 18.5824 13.4712C18.8733 13.5291 19.1749 13.4994 19.449 13.3858C19.7231 13.2723 19.9574 13.08 20.1222 12.8334C20.287 12.5867 20.375 12.2967 20.375 12C20.375 11.6022 20.217 11.2206 19.9357 10.9393C19.6544 10.658 19.2728 10.5 18.875 10.5Z" fill="#0065FF"/>
</g>
</svg>
