<svg width="24" height="24" viewBox="0 0 24 24" fill="none" xmlns="http://www.w3.org/2000/svg">
<g id="Group">
<path id="Vector" d="M17.6031 14.4613V13.6012C17.6021 12.7528 17.2649 11.9394 16.6652 11.3394C16.0656 10.7395 15.2526 10.402 14.4046 10.4011H9.60694C9.18161 10.4003 8.76044 10.4849 8.36834 10.6498C7.97623 10.8147 7.62114 11.0566 7.32404 11.3611C6.99759 11.5139 6.73273 11.7732 6.57291 12.0964C6.4131 12.4197 6.36781 12.7876 6.44447 13.14C6.39348 13.5791 6.38826 14.0223 6.42888 14.4625C6.19026 14.5408 5.98252 14.6927 5.83533 14.8963C5.68815 15.0999 5.60907 15.3448 5.60938 15.5961C5.60969 15.8474 5.68938 16.0922 5.83706 16.2954C5.98475 16.4986 6.19287 16.65 6.43167 16.7278C6.51003 17.2981 6.79105 17.8211 7.22329 18.201L6.04946 22.4812C5.9998 22.6581 5.9915 22.844 6.0252 23.0246C6.0589 23.2052 6.1337 23.3756 6.24379 23.5226C6.35389 23.6696 6.49633 23.7893 6.66009 23.8724C6.82384 23.9555 7.00451 23.9997 7.18811 24.0017H16.8235C17.0069 23.9995 17.1873 23.955 17.3508 23.8719C17.5144 23.7887 17.6566 23.669 17.7665 23.5221C17.8764 23.3752 17.951 23.2049 17.9847 23.0245C18.0183 22.8441 18.0101 22.6583 17.9605 22.4816L16.7879 18.2046C17.2184 17.8252 17.4986 17.3039 17.5779 16.7354C17.8155 16.6566 18.0226 16.5055 18.1702 16.3033C18.3179 16.101 18.3987 15.8577 18.4015 15.6073C18.4043 15.3569 18.3288 15.1118 18.1857 14.9064C18.0426 14.7009 17.8389 14.5453 17.6031 14.4613ZM13.4143 11.2011L13.0349 12.1495C13.0055 12.224 12.9544 12.2878 12.8882 12.3327C12.822 12.3776 12.7438 12.4014 12.6639 12.4012H11.3477C11.2677 12.4014 11.1896 12.3776 11.1234 12.3327C11.0572 12.2878 11.006 12.224 10.9767 12.1495L10.5973 11.2011H13.4143ZM9.73608 11.2011L10.2338 12.4468C10.3223 12.6699 10.4758 12.8612 10.6745 12.9958C10.8732 13.1304 11.1078 13.2019 11.3477 13.2012H12.6639C12.9038 13.2019 13.1384 13.1304 13.3371 12.9958C13.5357 12.8612 13.6893 12.6699 13.7777 12.4468L14.2755 11.2011C14.8371 11.1737 15.3906 11.3435 15.8403 11.6811C14.6133 13.8344 14.8044 13.1252 14.8044 16.0013H14.1791L13.9756 15.7101C13.7939 15.4543 13.5193 15.2798 13.2105 15.2242C12.9018 15.1685 12.5835 15.2362 12.324 15.4125L11.8159 15.7777C11.3194 14.717 10.5378 13.8154 9.55857 13.1736C9.64478 12.8223 9.60808 12.452 9.45458 12.1245C9.30108 11.7969 9.04005 11.5319 8.71497 11.3735C9.0395 11.2451 9.3874 11.1863 9.73608 11.2011ZM15.1939 18.0014C15.2024 17.781 15.1665 17.5612 15.0882 17.355C15.01 17.1489 14.891 16.9606 14.7385 16.8014H16.7523C16.6637 17.1467 16.4621 17.4525 16.1797 17.67C15.8973 17.8875 15.5502 18.0041 15.1939 18.0014ZM7.26487 16.8014H11.8059C11.9649 16.8014 12.1175 16.8646 12.2299 16.9771C12.3424 17.0896 12.4056 17.2423 12.4056 17.4014C12.4056 17.5605 12.3424 17.7132 12.2299 17.8257C12.1175 17.9382 11.9649 18.0014 11.8059 18.0014H8.80733C8.45381 18.0001 8.1107 17.8816 7.83163 17.6645C7.55255 17.4474 7.35325 17.1438 7.26487 16.8014ZM7.2081 12.8012C7.2081 12.589 7.29235 12.3855 7.4423 12.2355C7.59226 12.0854 7.79564 12.0011 8.00771 12.0011C8.21979 12.0011 8.42317 12.0854 8.57313 12.2355C8.72308 12.3855 8.80733 12.589 8.80733 12.8012C8.80733 13.0134 8.72308 13.2168 8.57313 13.3669C8.42317 13.5169 8.21979 13.6012 8.00771 13.6012C7.79564 13.6012 7.59226 13.5169 7.4423 13.3669C7.29235 13.2168 7.2081 13.0134 7.2081 12.8012ZM9.18075 13.8812C9.97557 14.4144 10.6184 15.1449 11.0463 16.0013H9.03402C8.74754 15.4804 8.55789 14.9119 8.47429 14.3232C8.74484 14.2413 8.98868 14.0887 9.18075 13.8812ZM14.3099 17.5846C14.3517 17.6456 14.3804 17.7146 14.3941 17.7873C14.4077 17.86 14.4061 17.9348 14.3892 18.0068C14.3724 18.0788 14.3407 18.1465 14.2962 18.2056C14.2517 18.2647 14.1953 18.3138 14.1308 18.3498C13.9169 18.4542 13.659 18.3898 13.5191 18.1966L13.1656 17.7166C13.2325 17.4362 13.2102 17.1419 13.102 16.8748C12.9938 16.6076 12.805 16.3809 12.5619 16.2261L12.7834 16.0661C12.8685 16.0087 12.9729 15.9874 13.0738 16.0067C13.1746 16.026 13.2637 16.0845 13.3216 16.1693L14.3099 17.5846ZM9.20714 18.8015H11.8059C12.1417 18.8015 12.4664 18.6799 12.7198 18.4594L12.875 18.6699C12.982 18.8199 13.1205 18.9448 13.2807 19.0359C13.4409 19.127 13.619 19.182 13.8026 19.1973C13.9863 19.2125 14.171 19.1875 14.344 19.1241C14.517 19.0606 14.6741 18.9602 14.8044 18.8299V21.2016C14.8044 21.3077 14.7623 21.4094 14.6873 21.4844C14.6124 21.5595 14.5107 21.6016 14.4046 21.6016H9.60694C9.50091 21.6016 9.39922 21.5595 9.32424 21.4844C9.24926 21.4094 9.20714 21.3077 9.20714 21.2016V18.8015ZM6.52843 15.3213C6.57187 15.2767 6.62513 15.2429 6.68395 15.2225C6.84028 15.1668 6.97509 15.0633 7.06919 14.9265C7.16329 14.7898 7.2119 14.6268 7.2081 14.4609V14.1808C7.35243 14.2672 7.50956 14.33 7.67388 14.3668C7.75163 14.9304 7.90717 15.4805 8.13605 16.0013H6.85307C6.7715 16.0084 6.6897 15.9905 6.6186 15.9498C6.54751 15.9092 6.49051 15.8478 6.45522 15.7739C6.41992 15.6999 6.40802 15.617 6.42111 15.5361C6.43419 15.4553 6.47163 15.3803 6.52843 15.3213ZM16.8235 23.2017H7.18811C7.1276 23.1994 7.0684 23.1833 7.01504 23.1547C6.96169 23.126 6.91558 23.0855 6.88025 23.0363C6.84492 22.9871 6.82129 22.9305 6.81118 22.8708C6.80106 22.811 6.80472 22.7498 6.82189 22.6917L7.93455 18.6347C8.08728 18.6947 8.2456 18.7387 8.40752 18.7655V21.2016C8.40752 21.5199 8.53389 21.8251 8.75883 22.0501C8.98376 22.2752 9.28884 22.4016 9.60694 22.4016H14.4046C14.7227 22.4016 15.0278 22.2752 15.2528 22.0501C15.4777 21.8251 15.6041 21.5199 15.6041 21.2016V18.7655C15.7656 18.7371 15.9239 18.6919 16.0758 18.6311L17.1897 22.6921C17.2069 22.7501 17.2105 22.8114 17.2004 22.8711C17.1903 22.9308 17.1667 22.9874 17.1313 23.0366C17.096 23.0858 17.0499 23.1262 16.9965 23.1548C16.9432 23.1834 16.884 23.1995 16.8235 23.2017ZM17.4832 15.8813C17.4468 15.9189 17.4033 15.9488 17.3552 15.9694C17.3072 15.99 17.2556 16.0008 17.2033 16.0013H15.6041C15.6041 13.9396 15.5517 13.7944 15.764 13.4316L16.4137 12.2927C16.8786 13.0044 16.8043 13.5728 16.8043 14.4613C16.8011 14.627 16.85 14.7896 16.9442 14.926C17.0384 15.0624 17.1731 15.1657 17.3292 15.2213C17.3937 15.2428 17.4516 15.2804 17.4974 15.3306C17.5432 15.3809 17.5753 15.442 17.5908 15.5082C17.6062 15.5744 17.6044 15.6435 17.5856 15.7088C17.5667 15.7741 17.5315 15.8335 17.4832 15.8813ZM12.0058 9.60102C12.642 9.60102 13.2522 9.34815 13.702 8.89804C14.1519 8.44793 14.4046 7.83745 14.4046 7.2009C14.4046 6.56435 14.1519 5.95387 13.702 5.50376C13.2522 5.05365 12.642 4.80078 12.0058 4.80078C11.3696 4.80078 10.7594 5.05365 10.3095 5.50376C9.85968 5.95387 9.60694 6.56435 9.60694 7.2009C9.60694 7.83745 9.85968 8.44793 10.3095 8.89804C10.7594 9.34815 11.3696 9.60102 12.0058 9.60102ZM12.0058 5.60082C12.4299 5.60082 12.8367 5.7694 13.1366 6.06947C13.4365 6.36955 13.605 6.77653 13.605 7.2009C13.605 7.62527 13.4365 8.03225 13.1366 8.33232C12.8367 8.6324 12.4299 8.80098 12.0058 8.80098C11.5816 8.80098 11.1749 8.6324 10.875 8.33232C10.575 8.03225 10.4066 7.62527 10.4066 7.2009C10.4066 6.77653 10.575 6.36955 10.875 6.06947C11.1749 5.7694 11.5816 5.60082 12.0058 5.60082Z" fill="#0065FF"/>
<path id="Vector_2" d="M23.2877 4.90343L12.4929 0.103196C12.3394 0.0351523 12.1734 0 12.0055 0C11.8377 0 11.6716 0.0351523 11.5182 0.103196L0.723364 4.90343C0.577836 4.96639 0.446229 5.0576 0.336155 5.17178C0.226081 5.28595 0.139724 5.42083 0.0820795 5.56861C0.0244351 5.71639 -0.00335303 5.87414 0.000322318 6.03273C0.00399767 6.19133 0.0390636 6.34762 0.103492 6.49256C0.16792 6.63751 0.260432 6.76824 0.375677 6.87719C0.490922 6.98614 0.626613 7.07115 0.774901 7.12729C0.92319 7.18344 1.08113 7.20961 1.2396 7.2043C1.39806 7.19899 1.5539 7.16229 1.69809 7.09634L11.8432 2.58492C11.8943 2.5622 11.9496 2.55046 12.0055 2.55046C12.0615 2.55046 12.1167 2.5622 12.1679 2.58492C23.2365 7.49996 22.4365 7.19994 22.8003 7.19994C23.0752 7.2 23.3417 7.10561 23.5553 6.93256C23.7689 6.75952 23.9167 6.51832 23.9738 6.24933C24.0309 5.98035 23.994 5.69989 23.8692 5.45488C23.7444 5.20988 23.5388 5.01521 23.2877 4.90343ZM23.1654 6.16229C23.0734 6.3611 22.8399 6.45111 22.638 6.3655L12.4929 1.85368C12.3394 1.78564 12.1734 1.75049 12.0055 1.75049C11.8377 1.75049 11.6716 1.78564 11.5182 1.85368L1.37385 6.3651C1.27699 6.40828 1.16695 6.41119 1.06794 6.3732C0.968929 6.3352 0.889062 6.25941 0.845905 6.16249C0.802749 6.06558 0.799839 5.95548 0.837815 5.85642C0.875792 5.75736 0.951544 5.67745 1.04841 5.63427L11.8432 0.834032C11.8943 0.811316 11.9496 0.79958 12.0055 0.79958C12.0615 0.79958 12.1167 0.811316 12.1679 0.834032L22.9627 5.63427C23.0595 5.6774 23.1353 5.75726 23.1733 5.85628C23.2113 5.9553 23.2084 6.06538 23.1654 6.16229Z" fill="#0065FF"/>
</g>
</svg>
