<svg width="24" height="24" viewBox="0 0 24 24" fill="none" xmlns="http://www.w3.org/2000/svg">
<g id="Frame" clip-path="url(#clip0_10112_9303)">
<g id="Group">
<g id="Group_2">
<path id="Vector" d="M7.6484 13.6873C7.42337 13.4623 7.1182 13.336 6.8 13.336C6.4818 13.336 6.17663 13.4623 5.9516 13.6873C5.75513 13.8853 5.63462 14.1461 5.6112 14.4241C5.47466 14.4086 5.33741 14.4001 5.2 14.3989C4.35978 14.3978 3.5406 14.6616 2.85897 15.1529C2.17734 15.6442 1.66797 16.3379 1.4033 17.1354C1.13864 17.9328 1.13216 18.7934 1.38477 19.5948C1.63739 20.3961 2.13625 21.0974 2.8104 21.5989H1.2C0.88174 21.5989 0.576515 21.7253 0.351472 21.9504C0.126428 22.1754 0 22.4806 0 22.7989C0 23.1172 0.126428 23.4224 0.351472 23.6474C0.576515 23.8725 0.88174 23.9989 1.2 23.9989H22.8C23.1183 23.9989 23.4235 23.8725 23.6485 23.6474C23.8736 23.4224 24 23.1172 24 22.7989C24 22.4806 23.8736 22.1754 23.6485 21.9504C23.4235 21.7253 23.1183 21.5989 22.8 21.5989H21.28L22.3408 15.9433C22.6168 15.8616 22.854 15.6833 23.0092 15.4409C23.1643 15.1985 23.2269 14.9083 23.1855 14.6235C23.1441 14.3387 23.0015 14.0784 22.7838 13.8902C22.566 13.702 22.2878 13.5986 22 13.5989C21.9996 13.2442 21.8816 12.8997 21.6644 12.6193C21.4473 12.3389 21.1433 12.1384 20.8 12.0493V11.9989C20.7996 11.575 20.6644 11.1621 20.4141 10.82C20.1637 10.4779 19.8112 10.2242 19.4073 10.0954C19.0034 9.96672 18.569 9.96968 18.1669 10.1039C17.7647 10.2381 17.4156 10.4966 17.17 10.8421C16.9647 10.7935 16.7518 10.786 16.5435 10.8199C16.3353 10.8538 16.1358 10.9285 15.9565 11.0397C15.7772 11.1509 15.6216 11.2964 15.4986 11.4679C15.3757 11.6393 15.2878 11.8334 15.24 12.0389C14.8876 12.1208 14.5732 12.3195 14.3481 12.6028C14.123 12.886 14.0003 13.2371 14 13.5989C13.7121 13.5982 13.4336 13.7014 13.2155 13.8894C12.9975 14.0775 12.8546 14.3378 12.813 14.6227C12.7714 14.9076 12.8339 15.198 12.989 15.4405C13.1441 15.6831 13.3815 15.8616 13.6576 15.9433L14.72 21.5989H12C11.9994 20.9626 11.7463 20.3525 11.2964 19.9025C10.8464 19.4526 10.2363 19.1995 9.6 19.1989H9.116C9.20257 18.8012 9.22244 18.3919 9.1748 17.9877C9.40135 17.9673 9.61739 17.8827 9.79753 17.7438C9.97767 17.6049 10.1144 17.4175 10.1918 17.2036C10.2691 16.9897 10.2838 16.7581 10.2341 16.5362C10.1844 16.3142 10.0724 16.111 9.9112 15.9505L9.6284 15.6677L23.2484 2.0477C23.3613 1.93661 23.4512 1.80427 23.5127 1.6583C23.5742 1.51233 23.6062 1.35562 23.6069 1.19721C23.6076 1.03881 23.5769 0.881837 23.5166 0.735356C23.4562 0.588876 23.3675 0.455784 23.2555 0.343759C23.1435 0.231734 23.0105 0.142993 22.864 0.0826534C22.7175 0.0223139 22.5606 -0.0084294 22.4022 -0.00780312C22.2438 -0.00717684 22.087 0.0248066 21.9411 0.0863024C21.7951 0.147798 21.6627 0.237589 21.5516 0.350496L7.9316 13.9705L7.6484 13.6873ZM15.6 12.7989C15.7061 12.7989 15.8078 12.7568 15.8828 12.6817C15.9579 12.6067 16 12.505 16 12.3989C15.9999 12.2618 16.0351 12.1269 16.1022 12.0073C16.1692 11.8876 16.2659 11.7873 16.383 11.7158C16.5 11.6443 16.6335 11.6041 16.7705 11.599C16.9076 11.594 17.0436 11.6242 17.1656 11.6869C17.2137 11.7116 17.2663 11.7262 17.3203 11.73C17.3742 11.7337 17.4284 11.7265 17.4794 11.7087C17.5305 11.691 17.5774 11.6631 17.6174 11.6266C17.6574 11.5902 17.6896 11.5461 17.712 11.4969C17.8271 11.2495 18.0231 11.0487 18.2676 10.9277C18.5122 10.8066 18.7907 10.7725 19.0572 10.831C19.3237 10.8895 19.5623 11.037 19.7337 11.2493C19.9051 11.4616 19.999 11.726 20 11.9989C19.9994 12.1024 19.9859 12.2055 19.96 12.3057C19.9441 12.3693 19.944 12.4358 19.9599 12.4994C19.9757 12.563 20.0069 12.6217 20.0507 12.6705C20.0946 12.7192 20.1497 12.7564 20.2113 12.7788C20.2729 12.8012 20.3391 12.8081 20.404 12.7989C20.6155 12.8 20.8179 12.8847 20.9671 13.0346C21.1163 13.1845 21.2 13.3874 21.2 13.5989H14.8C14.8 13.3867 14.8843 13.1832 15.0343 13.0332C15.1843 12.8832 15.3878 12.7989 15.6 12.7989ZM14 14.3989H22C22.1061 14.3989 22.2078 14.441 22.2828 14.5161C22.3579 14.5911 22.4 14.6928 22.4 14.7989C22.4 14.905 22.3579 15.0067 22.2828 15.0817C22.2078 15.1568 22.1061 15.1989 22 15.1989H14C13.8939 15.1989 13.7922 15.1568 13.7172 15.0817C13.6421 15.0067 13.6 14.905 13.6 14.7989C13.6 14.6928 13.6421 14.5911 13.7172 14.5161C13.7922 14.441 13.8939 14.3989 14 14.3989ZM14.48 15.9989H21.52L20.468 21.5989H15.532L14.48 15.9989ZM15.2 22.3989H22.8C22.9061 22.3989 23.0078 22.441 23.0828 22.5161C23.1579 22.5911 23.2 22.6928 23.2 22.7989C23.2 22.905 23.1579 23.0067 23.0828 23.0817C23.0078 23.1568 22.9061 23.1989 22.8 23.1989H1.2C1.09391 23.1989 0.992172 23.1568 0.917157 23.0817C0.842143 23.0067 0.8 22.905 0.8 22.7989C0.8 22.6928 0.842143 22.5911 0.917157 22.5161C0.992172 22.441 1.09391 22.3989 1.2 22.3989H15.2ZM7.6 19.1989C7.49391 19.1989 7.39217 19.241 7.31716 19.3161C7.24214 19.3911 7.2 19.4928 7.2 19.5989C7.2 19.705 7.24214 19.8067 7.31716 19.8817C7.39217 19.9568 7.49391 19.9989 7.6 19.9989H9.6C10.0243 19.9989 10.4313 20.1675 10.7314 20.4675C11.0314 20.7676 11.2 21.1746 11.2 21.5989H5.2C4.35131 21.5989 3.53737 21.2618 2.93726 20.6616C2.33714 20.0615 2 19.2476 2 18.3989C2 17.5502 2.33714 16.7363 2.93726 16.1362C3.53737 15.536 4.35131 15.1989 5.2 15.1989C5.42207 15.2011 5.64334 15.2259 5.8604 15.2729C5.8884 15.3121 5.9188 15.3489 5.9516 15.3845L8.214 17.6473C8.2496 17.6801 8.2868 17.7105 8.326 17.7389C8.3731 17.9558 8.39789 18.177 8.4 18.3989C8.4 18.6689 8.366 18.9377 8.298 19.1989H7.6ZM9.3456 17.0817C9.30845 17.1189 9.26434 17.1484 9.21578 17.1685C9.16722 17.1887 9.11517 17.199 9.0626 17.199C9.01003 17.199 8.95798 17.1887 8.90942 17.1685C8.86086 17.1484 8.81675 17.1189 8.7796 17.0817L6.5172 14.8189C6.44434 14.7435 6.40402 14.6424 6.40493 14.5375C6.40584 14.4327 6.44791 14.3323 6.52207 14.2582C6.59624 14.184 6.69656 14.1419 6.80144 14.141C6.90632 14.1401 7.00736 14.1804 7.0828 14.2533L7.648 14.8185L7.9876 15.1581L9.3452 16.5157C9.42019 16.5907 9.46231 16.6924 9.46231 16.7985C9.46231 16.9046 9.42019 17.0063 9.3452 17.0813L9.3456 17.0817ZM22.1172 0.916096C22.1541 0.877892 22.1982 0.847419 22.247 0.826456C22.2958 0.805492 22.3483 0.794458 22.4014 0.793996C22.4546 0.793535 22.5072 0.803655 22.5564 0.823768C22.6055 0.84388 22.6502 0.873581 22.6878 0.911138C22.7253 0.948695 22.755 0.993356 22.7751 1.04251C22.7952 1.09167 22.8054 1.14435 22.8049 1.19746C22.8044 1.25057 22.7934 1.30306 22.7724 1.35186C22.7515 1.40066 22.721 1.4448 22.6828 1.4817L9.0628 15.1017L8.9056 14.9449L8.4972 14.5361L22.1172 0.916096Z" fill="#0065FF"/>
<path id="Vector_2" d="M16.8 16.8H16C15.8939 16.8 15.7922 16.8421 15.7172 16.9172C15.6421 16.9922 15.6 17.0939 15.6 17.2C15.6 17.3061 15.6421 17.4078 15.7172 17.4828C15.7922 17.5579 15.8939 17.6 16 17.6H16.8C16.9061 17.6 17.0078 17.5579 17.0828 17.4828C17.1579 17.4078 17.2 17.3061 17.2 17.2C17.2 17.0939 17.1579 16.9922 17.0828 16.9172C17.0078 16.8421 16.9061 16.8 16.8 16.8ZM19.6 16.8H18.4C18.2939 16.8 18.1922 16.8421 18.1172 16.9172C18.0421 16.9922 18 17.0939 18 17.2C18 17.3061 18.0421 17.4078 18.1172 17.4828C18.1922 17.5579 18.2939 17.6 18.4 17.6H19.6C19.7061 17.6 19.8078 17.5579 19.8828 17.4828C19.9579 17.4078 20 17.3061 20 17.2C20 17.0939 19.9579 16.9922 19.8828 16.9172C19.8078 16.8421 19.7061 16.8 19.6 16.8ZM22.4 11.2C22.5576 11.2 22.7136 11.169 22.8592 11.1087C23.0048 11.0484 23.1371 10.96 23.2485 10.8485C23.36 10.7371 23.4484 10.6048 23.5087 10.4592C23.569 10.3136 23.6 10.1576 23.6 10C23.6 9.84241 23.569 9.68637 23.5087 9.54078C23.4484 9.39519 23.36 9.2629 23.2485 9.15147C23.1371 9.04004 23.0048 8.95165 22.8592 8.89135C22.7136 8.83104 22.5576 8.8 22.4 8.8C22.0817 8.8 21.7765 8.92643 21.5515 9.15147C21.3264 9.37652 21.2 9.68174 21.2 10C21.2 10.3183 21.3264 10.6235 21.5515 10.8485C21.7765 11.0736 22.0817 11.2 22.4 11.2ZM22.4 9.6C22.5061 9.6 22.6078 9.64214 22.6828 9.71716C22.7579 9.79217 22.8 9.89391 22.8 10C22.8 10.1061 22.7579 10.2078 22.6828 10.2828C22.6078 10.3579 22.5061 10.4 22.4 10.4C22.2939 10.4 22.1922 10.3579 22.1172 10.2828C22.0421 10.2078 22 10.1061 22 10C22 9.89391 22.0421 9.79217 22.1172 9.71716C22.1922 9.64214 22.2939 9.6 22.4 9.6ZM20.4 6.4C20.0817 6.4 19.7765 6.52643 19.5515 6.75147C19.3264 6.97652 19.2 7.28174 19.2 7.6C19.2 7.91826 19.3264 8.22348 19.5515 8.44853C19.7765 8.67357 20.0817 8.8 20.4 8.8C20.7183 8.8 21.0235 8.67357 21.2485 8.44853C21.4736 8.22348 21.6 7.91826 21.6 7.6C21.6 7.28174 21.4736 6.97652 21.2485 6.75147C21.0235 6.52643 20.7183 6.4 20.4 6.4ZM20.4 8C20.2939 8 20.1922 7.95786 20.1172 7.88284C20.0421 7.80783 20 7.70609 20 7.6C20 7.49391 20.0421 7.39217 20.1172 7.31716C20.1922 7.24214 20.2939 7.2 20.4 7.2C20.5061 7.2 20.6078 7.24214 20.6828 7.31716C20.7579 7.39217 20.8 7.49391 20.8 7.6C20.8 7.70609 20.7579 7.80783 20.6828 7.88284C20.6078 7.95786 20.5061 8 20.4 8ZM10.7964 3.54261e-08C10.6923 -4.37505e-05 10.5923 0.040503 10.5176 0.113027C10.4429 0.185551 10.3994 0.284337 10.3964 0.3884V0.4C10.3964 0.5472 10.36 4 7.1924 4C7.08631 4 6.98457 4.04214 6.90956 4.11716C6.83454 4.19217 6.7924 4.29391 6.7924 4.4C6.7924 4.50609 6.83454 4.60783 6.90956 4.68284C6.98457 4.75786 7.08631 4.8 7.1924 4.8C10.3476 4.8 10.396 8.2536 10.3964 8.4C10.395 8.50609 10.4357 8.6084 10.5097 8.68442C10.5837 8.76045 10.6849 8.80397 10.791 8.8054C10.8971 8.80683 10.9994 8.76606 11.0754 8.69206C11.1515 8.61806 11.195 8.51689 11.1964 8.4108V8.4C11.1964 8.2528 11.2328 4.8 14.4 4.8C14.5061 4.8 14.6078 4.75786 14.6828 4.68284C14.7579 4.60783 14.8 4.50609 14.8 4.4C14.8 4.29391 14.7579 4.19217 14.6828 4.11716C14.6078 4.04214 14.5061 4 14.4 4C11.252 4 11.1972 0.56 11.1964 0.4C11.1964 0.293913 11.1543 0.192172 11.0792 0.117157C11.0042 0.0421428 10.9025 3.54261e-08 10.7964 3.54261e-08ZM12.5768 4.4C11.7577 4.83209 11.1246 5.54842 10.7964 6.4144C10.4682 5.54842 9.8351 4.83209 9.016 4.4C9.8351 3.96791 10.4682 3.25158 10.7964 2.3856C11.1246 3.25158 11.7577 3.96791 12.5768 4.4ZM2.4 12.002V12.0044C2.40058 12.1105 2.44329 12.212 2.51871 12.2866C2.59414 12.3612 2.69611 12.4028 2.8022 12.4022C2.90829 12.4016 3.0098 12.3589 3.0844 12.2835C3.159 12.2081 3.20058 12.1061 3.2 12C3.2 11.902 3.2336 9.6 5.2 9.6C5.30609 9.6 5.40783 9.55786 5.48284 9.48284C5.55786 9.40783 5.6 9.30609 5.6 9.2C5.6 9.09391 5.55786 8.99217 5.48284 8.91716C5.40783 8.84214 5.30609 8.8 5.2 8.8C3.2336 8.8 3.2 6.4972 3.2 6.4V6.3976C3.19968 6.29151 3.15723 6.1899 3.08199 6.11511C3.00675 6.04032 2.90489 5.99848 2.7988 5.9988C2.69271 5.99912 2.5911 6.04157 2.51631 6.11681C2.44152 6.19205 2.39968 6.29391 2.4 6.4C2.4 6.498 2.3664 8.8 0.4 8.8C0.293913 8.8 0.192172 8.84214 0.117157 8.91716C0.0421427 8.99217 0 9.09391 0 9.2C0 9.30609 0.0421427 9.40783 0.117157 9.48284C0.192172 9.55786 0.293913 9.6 0.4 9.6C2.3664 9.6 2.4 11.9028 2.4 12V12.002ZM1.8624 9.2C2.26751 8.92993 2.5916 8.55483 2.8 8.1148C3.0084 8.55483 3.33249 8.92993 3.7376 9.2C3.33257 9.47016 3.0085 9.84524 2.8 10.2852C2.5915 9.84524 2.26743 9.47016 1.8624 9.2ZM4.3172 3.2828L4.9172 3.8828C4.99264 3.95566 5.09368 3.99598 5.19856 3.99507C5.30344 3.99416 5.40376 3.95209 5.47793 3.87793C5.55209 3.80376 5.59416 3.70344 5.59507 3.59856C5.59598 3.49368 5.55566 3.39264 5.4828 3.3172L4.8828 2.7172C4.8459 2.679 4.80176 2.64852 4.75296 2.62756C4.70416 2.6066 4.65167 2.59556 4.59856 2.5951C4.54545 2.59464 4.49278 2.60476 4.44362 2.62487C4.39446 2.64498 4.3498 2.67469 4.31224 2.71224C4.27469 2.7498 4.24498 2.79446 4.22487 2.84362C4.20476 2.89278 4.19464 2.94545 4.1951 2.99856C4.19556 3.05167 4.2066 3.10416 4.22756 3.15296C4.24852 3.20176 4.279 3.2459 4.3172 3.2828ZM3.1172 2.0828C3.19264 2.15566 3.29368 2.19598 3.39856 2.19507C3.50344 2.19416 3.60376 2.15209 3.67793 2.07793C3.75209 2.00376 3.79416 1.90344 3.79507 1.79856C3.79598 1.69368 3.75566 1.59264 3.6828 1.5172L3.0828 0.9172C3.00736 0.844337 2.90632 0.804019 2.80144 0.80493C2.69656 0.805842 2.59624 0.847909 2.52207 0.922073C2.44791 0.996236 2.40584 1.09656 2.40493 1.20144C2.40402 1.30632 2.44434 1.40736 2.5172 1.4828L3.1172 2.0828ZM2.5172 3.8828C2.59221 3.95779 2.69393 3.99991 2.8 3.99991C2.90607 3.99991 3.00779 3.95779 3.0828 3.8828L3.6828 3.2828C3.75566 3.20736 3.79598 3.10632 3.79507 3.00144C3.79416 2.89656 3.75209 2.79624 3.67793 2.72207C3.60376 2.64791 3.50344 2.60584 3.39856 2.60493C3.29368 2.60402 3.19264 2.64434 3.1172 2.7172L2.5172 3.3172C2.44221 3.39221 2.40009 3.49393 2.40009 3.6C2.40009 3.70607 2.44221 3.80779 2.5172 3.8828ZM4.6 2.2C4.70608 2.19998 4.8078 2.15782 4.8828 2.0828L5.4828 1.4828C5.521 1.4459 5.55148 1.40176 5.57244 1.35296C5.5934 1.30416 5.60444 1.25167 5.6049 1.19856C5.60536 1.14545 5.59524 1.09278 5.57513 1.04362C5.55502 0.99446 5.52532 0.949799 5.48776 0.912242C5.4502 0.874685 5.40554 0.844984 5.35638 0.824871C5.30722 0.804759 5.25455 0.794638 5.20144 0.7951C5.14833 0.795561 5.09584 0.806596 5.04704 0.827559C4.99824 0.848523 4.9541 0.878996 4.9172 0.9172L4.3172 1.5172C4.26128 1.57314 4.22319 1.64441 4.20777 1.72199C4.19234 1.79957 4.20026 1.87998 4.23053 1.95306C4.2608 2.02614 4.31205 2.08861 4.37782 2.13256C4.44358 2.17651 4.5209 2.19998 4.6 2.2Z" fill="#0065FF"/>
</g>
</g>
</g>
<defs>
<clipPath id="clip0_10112_9303">
<rect width="24" height="24" fill="white"/>
</clipPath>
</defs>
</svg>
