<svg width="24" height="24" viewBox="0 0 24 24" fill="none" xmlns="http://www.w3.org/2000/svg">
<g id="Icon">
<g id="Group">
<path id="Vector" d="M22.8163 18.8693L22.1139 16.7588C21.9654 16.3186 21.7235 15.9157 21.4047 15.5778C21.0859 15.2399 20.6977 14.975 20.2669 14.8013C19.836 14.6275 19.3727 14.5491 18.9087 14.5713C18.4447 14.5935 17.9909 14.7158 17.5786 14.9299L14.1193 11.4705L14.3229 11.2673L15.1183 12.0626C15.1886 12.1329 15.2839 12.1724 15.3834 12.1724C15.4828 12.1724 15.5782 12.1329 15.6485 12.0626L16.1788 11.5324C16.2136 11.4976 16.2413 11.4562 16.2602 11.4107C16.279 11.3652 16.2887 11.3164 16.2887 11.2671C16.2887 11.2178 16.279 11.169 16.2602 11.1235C16.2413 11.0779 16.2136 11.0366 16.1788 11.0018L15.9136 10.7366L16.4443 10.2064L16.7094 10.4715C16.7797 10.5418 16.8751 10.5813 16.9745 10.5813C17.0739 10.5813 17.1693 10.5418 17.2396 10.4715L22.5429 5.16826C22.7538 4.95729 22.8723 4.67119 22.8723 4.37288C22.8723 4.07458 22.7538 3.78848 22.5429 3.57751L20.4219 1.45614C20.3174 1.35165 20.1934 1.26877 20.0569 1.21222C19.9204 1.15567 19.7741 1.12656 19.6263 1.12656C19.4786 1.12656 19.3323 1.15567 19.1958 1.21222C19.0593 1.26877 18.9352 1.35165 18.8308 1.45614L13.5275 6.75939C13.4572 6.82971 13.4177 6.92507 13.4177 7.02451C13.4177 7.12395 13.4572 7.21931 13.5275 7.28963L13.7926 7.55476L13.2624 8.08538L12.9969 7.81989C12.9252 7.75222 12.8303 7.71452 12.7318 7.71452C12.6332 7.71452 12.5383 7.75222 12.4666 7.81989L11.9364 8.35051C11.8661 8.42083 11.8266 8.5162 11.8266 8.61563C11.8266 8.71507 11.8661 8.81044 11.9364 8.88076L12.7318 9.67651L12.5285 9.88013L9.06913 6.42076C9.38183 5.81344 9.49457 5.12283 9.39126 4.44759C9.28795 3.77236 8.97386 3.14705 8.49388 2.66101C8.13923 2.31031 7.70955 2.04475 7.23726 1.88439L5.13013 1.18314C4.93154 1.11653 4.71825 1.10695 4.51449 1.15547C4.31072 1.20399 4.12464 1.30867 3.97738 1.45763L3.77488 1.66013C3.70458 1.73046 3.66509 1.82582 3.66509 1.92526C3.66509 2.0247 3.70458 2.12006 3.77488 2.19039L5.89738 4.30913C5.93231 4.34397 5.96001 4.38535 5.97892 4.43091C5.99782 4.47647 6.00755 4.52531 6.00755 4.57463C6.00755 4.62396 5.99782 4.6728 5.97892 4.71836C5.96001 4.76392 5.93231 4.8053 5.89738 4.84013L4.83501 5.90138C4.76338 5.96933 4.66842 6.00721 4.5697 6.00721C4.47097 6.00721 4.37601 5.96933 4.30438 5.90138L2.18563 3.77889C2.11551 3.70874 2.02045 3.66923 1.92126 3.66901C1.82181 3.66903 1.72644 3.70855 1.65613 3.77889L1.45363 3.98138C1.30474 4.12861 1.2001 4.31462 1.15158 4.51832C1.10306 4.72201 1.11261 4.93522 1.17913 5.13376L1.88151 7.24426C2.04194 7.71577 2.30736 8.14468 2.65776 8.49864C3.14377 8.9783 3.76892 9.29212 4.44392 9.3953C5.11893 9.49847 5.80928 9.38572 6.41638 9.07313L9.87576 12.5325L4.10076 18.3075L3.14751 18.2595C3.08347 18.2559 3.01958 18.2688 2.96202 18.2972C2.90447 18.3255 2.85521 18.3682 2.81901 18.4211L1.18851 20.7889C1.13884 20.8611 1.11604 20.9484 1.12405 21.0357C1.13207 21.123 1.1704 21.2047 1.23238 21.2666L2.73238 22.7666C2.79473 22.829 2.87707 22.8674 2.96493 22.8751C3.05278 22.8828 3.14053 22.8592 3.21276 22.8086L5.56363 21.1613C5.61495 21.1254 5.65646 21.0772 5.68436 21.0211C5.71227 20.965 5.72568 20.9029 5.72338 20.8403L5.68813 19.9028L11.4665 14.1233L14.9259 17.5826C14.7114 17.9952 14.5888 18.4493 14.5666 18.9138C14.5443 19.3783 14.6229 19.842 14.797 20.2732C14.9711 20.7044 15.2365 21.0927 15.575 21.4116C15.9134 21.7304 16.317 21.9721 16.7578 22.1201L18.8649 22.8214C19.0635 22.888 19.2768 22.8976 19.4805 22.8491C19.6843 22.8005 19.8704 22.6958 20.0176 22.5469L20.2201 22.3444C20.2904 22.2741 20.3299 22.1787 20.3299 22.0793C20.3299 21.9798 20.2904 21.8845 20.2201 21.8141L18.0984 19.6958C18.0634 19.6609 18.0357 19.6195 18.0167 19.5739C17.9978 19.5283 17.988 19.4794 17.988 19.4301C17.988 19.3807 17.9978 19.3318 18.0167 19.2862C18.0357 19.2406 18.0634 19.1992 18.0984 19.1644L19.1596 18.1031C19.2312 18.0351 19.3262 17.9972 19.4249 17.9972C19.5237 17.9972 19.6187 18.0351 19.6903 18.1031L21.809 20.2256C21.8438 20.2605 21.8852 20.2882 21.9307 20.307C21.9762 20.3259 22.025 20.3356 22.0743 20.3356C22.1236 20.3356 22.1724 20.3259 22.2179 20.307C22.2634 20.2882 22.3048 20.2605 22.3396 20.2256L22.5421 20.0231C22.6911 19.8756 22.7957 19.6893 22.8441 19.4854C22.8926 19.2814 22.8829 19.068 22.8163 18.8693ZM16.9745 9.67651L16.4443 9.14626L20.4223 5.16826C20.4936 5.10011 20.5885 5.06208 20.6872 5.06208C20.7859 5.06208 20.8808 5.10011 20.9521 5.16826L21.2173 5.43338L16.9745 9.67651ZM19.8916 1.98639L22.0126 4.10776C22.0829 4.17808 22.1224 4.27345 22.1224 4.37288C22.1224 4.47232 22.0829 4.56769 22.0126 4.63801L21.7475 4.90313L21.4824 4.63801C21.2681 4.4334 20.9833 4.31922 20.687 4.31922C20.3908 4.31922 20.1059 4.4334 19.8916 4.63801L15.914 8.61563L15.3834 8.08501L19.361 4.10776C19.4655 4.00329 19.5484 3.87926 19.6049 3.74276C19.6615 3.60626 19.6906 3.45995 19.6906 3.3122C19.6906 3.16444 19.6615 3.01814 19.6049 2.88163C19.5484 2.74513 19.4655 2.6211 19.361 2.51663L19.0959 2.25151L19.361 1.98639C19.3958 1.95152 19.4372 1.92386 19.4827 1.90499C19.5282 1.88612 19.577 1.8764 19.6263 1.8764C19.6756 1.8764 19.7244 1.88612 19.7699 1.90499C19.8154 1.92386 19.8568 1.95152 19.8916 1.98639ZM18.5656 2.78176L18.8308 3.04689C18.8656 3.08171 18.8933 3.12307 18.9122 3.16859C18.931 3.21412 18.9407 3.26292 18.9407 3.3122C18.9407 3.36148 18.931 3.41028 18.9122 3.4558C18.8933 3.50132 18.8656 3.54268 18.8308 3.57751L14.8531 7.55476L14.3225 7.02451L18.5656 2.78176ZM12.7318 8.61526L12.9973 8.88076C13.0676 8.95106 13.1629 8.99055 13.2624 8.99055C13.3618 8.99055 13.4572 8.95106 13.5275 8.88076L14.3225 8.08501L15.914 9.67651L15.1183 10.4715C15.048 10.5418 15.0085 10.6372 15.0085 10.7366C15.0085 10.8361 15.048 10.9314 15.1183 11.0018L15.3834 11.2673L12.7318 8.61563V8.61526ZM6.27313 8.28901C5.79878 8.59388 5.23475 8.72813 4.67392 8.66965C4.11308 8.61117 3.58888 8.36344 3.18763 7.96726C2.91883 7.69531 2.71522 7.36592 2.59213 7.00389L1.89088 4.89639C1.87356 4.84436 1.86793 4.78914 1.87441 4.73469C1.8809 4.68024 1.89933 4.62789 1.92838 4.58139L3.77526 6.43126C3.98972 6.63575 4.27468 6.74983 4.57101 6.74983C4.86734 6.74983 5.1523 6.63575 5.36676 6.43126L6.42801 5.37001C6.53261 5.26553 6.61559 5.14145 6.6722 5.00488C6.72882 4.86831 6.75796 4.72191 6.75796 4.57407C6.75796 4.42623 6.72882 4.27984 6.6722 4.14326C6.61559 4.00669 6.53261 3.88262 6.42801 3.77814L4.57776 1.93201C4.62433 1.90312 4.67668 1.88479 4.7311 1.87831C4.78552 1.87183 4.8407 1.87736 4.89276 1.89451L6.99763 2.59501C7.36041 2.71792 7.69057 2.92153 7.96326 3.19051C8.35956 3.59183 8.60738 4.11614 8.66593 4.6771C8.72448 5.23807 8.59027 5.80225 8.28538 6.27676C8.23859 6.34884 8.21797 6.43481 8.22698 6.52028C8.23599 6.60574 8.27408 6.68552 8.33488 6.74626L9.61888 8.03026C9.21446 8.08144 8.83854 8.26566 8.55028 8.55391C8.26203 8.84216 8.07782 9.21809 8.02663 9.62251L6.74263 8.33851C6.6819 8.27771 6.60212 8.23962 6.51665 8.23061C6.43118 8.22159 6.34522 8.24221 6.27313 8.28901ZM9.08001 10.6759C8.87508 10.4637 8.76169 10.1795 8.76425 9.88456C8.76681 9.58959 8.88513 9.30742 9.09371 9.09884C9.3023 8.89025 9.58446 8.77194 9.87943 8.76938C10.1744 8.76681 10.4586 8.88021 10.6708 9.08513L11.9975 10.41L10.406 12.0015L9.08001 10.6759ZM5.04201 19.4884C5.00551 19.5249 4.97694 19.5686 4.9581 19.6166C4.93926 19.6647 4.93054 19.7162 4.93251 19.7678L4.96626 20.6655L3.04026 22.014L1.98501 20.9569L3.31926 19.0193L4.22863 19.0661C4.28107 19.0689 4.3335 19.0606 4.38253 19.0418C4.43157 19.023 4.4761 18.9941 4.51326 18.957L13.2624 10.2064L13.7926 10.737L5.04201 19.4884ZM13.589 12.0015L14.915 13.3275C15.1231 13.5391 15.2392 13.8243 15.238 14.1211C15.2367 14.4179 15.1183 14.7022 14.9084 14.912C14.6985 15.1218 14.4142 15.2402 14.1174 15.2414C13.8206 15.2426 13.5354 15.1264 13.3239 14.9183L11.9975 13.593L13.589 12.0015ZM22.067 19.4213L20.2205 17.5718C20.0061 17.3671 19.721 17.2529 19.4246 17.2529C19.1281 17.2529 18.8431 17.3671 18.6286 17.5718L17.5674 18.633C17.3568 18.8444 17.2385 19.1306 17.2385 19.4289C17.2385 19.7273 17.3568 20.0135 17.5674 20.2249L19.4165 22.0714C19.37 22.1005 19.3177 22.119 19.2632 22.1254C19.2087 22.1319 19.1535 22.1263 19.1015 22.1089L16.9974 21.4084C16.6404 21.2888 16.3155 21.0891 16.0476 20.8246C15.7796 20.5602 15.5758 20.2379 15.4515 19.8825C15.3273 19.5271 15.286 19.148 15.3308 18.7742C15.3756 18.4004 15.5053 18.0418 15.71 17.7259C15.7569 17.6538 15.7775 17.5679 15.7686 17.4824C15.7597 17.397 15.7216 17.3172 15.6609 17.2564L14.3765 15.9724C14.7809 15.921 15.1567 15.7368 15.445 15.4487C15.7334 15.1605 15.9178 14.7848 15.9695 14.3805L17.2531 15.6641C17.3138 15.7248 17.3936 15.7629 17.4789 15.7719C17.5643 15.7809 17.6502 15.7603 17.7223 15.7136C18.0381 15.5093 18.3964 15.3797 18.7699 15.335C19.1434 15.2902 19.5222 15.3314 19.8774 15.4554C20.2326 15.5794 20.5547 15.7829 20.8192 16.0504C21.0837 16.3179 21.2836 16.6422 21.4036 16.9988L22.1049 19.1059C22.1222 19.158 22.1278 19.2133 22.1212 19.2678C22.1147 19.3223 22.0962 19.3747 22.067 19.4213Z" fill="#0065FF"/>
</g>
</g>
</svg>
