<svg width="32" height="32" viewBox="0 0 32 32" fill="none" xmlns="http://www.w3.org/2000/svg">
<g id="Frame" clip-path="url(#clip0_11608_323)">
<g id="Group">
<path id="Vector" d="M14.6864 8.99126C16.3664 10.1166 18.7168 10.0579 20.6688 9.50166C20.9918 10.3313 21.2069 11.1991 21.3088 12.0835L21.3269 13.3347H13.8677C13.716 13.3347 13.5661 13.3671 13.4279 13.4297C13.2897 13.4922 13.1665 13.5836 13.0664 13.6975C12.9663 13.8115 12.8917 13.9455 12.8475 14.0906C12.8033 14.2357 12.7905 14.3886 12.8101 14.539L13.2954 18.2723C13.3285 18.5267 13.4521 18.7606 13.6436 18.9312C13.8351 19.1018 14.0817 19.1978 14.3381 19.2014L15.8714 31.0729C15.9418 31.6035 16.3941 32.0009 16.9296 32.0014H26.8058C27.065 32.0009 27.3151 31.9063 27.5097 31.7352C27.7044 31.5641 27.8302 31.3282 27.864 31.0713L29.3973 19.2014C29.6535 19.1978 29.8999 19.1021 30.0914 18.9318C30.2828 18.7615 30.4066 18.528 30.44 18.2739C30.9834 14.0931 30.9253 14.5939 30.9253 14.5406C30.9451 14.3901 30.9326 14.237 30.8885 14.0917C30.8444 13.9464 30.7698 13.8122 30.6697 13.6981C30.5696 13.5839 30.4462 13.4924 30.3079 13.4298C30.1696 13.3671 30.0195 13.3347 29.8677 13.3347H22.401L22.4266 12.0857C22.5237 11.1998 22.7392 10.331 23.0666 9.50219C25.0176 10.0601 27.369 10.1166 29.0485 8.99126C31.6085 7.27766 31.9818 3.33153 31.9984 3.16406C31.9991 3.13171 31.9966 3.09937 31.9909 3.06753C31.9879 2.98083 31.9606 2.89673 31.912 2.82486V2.82059C31.9066 2.81259 31.8981 2.80886 31.8928 2.80139C31.8479 2.73705 31.7868 2.68571 31.7157 2.65259C31.6944 2.63829 31.6719 2.6258 31.6485 2.61526C31.4949 2.56193 27.8512 1.28459 25.2805 3.00566C22.969 4.55233 22.4405 7.91233 22.3472 8.67499C22.128 8.97538 21.9654 9.31315 21.8672 9.67179C21.7683 9.31191 21.6058 8.97268 21.3872 8.67019C21.2938 7.90113 20.7626 4.55073 18.4538 3.00566C15.8858 1.28513 12.2421 2.56139 12.088 2.61473C12.0646 2.62535 12.0421 2.63784 12.0208 2.65206C11.9498 2.68537 11.8887 2.73667 11.8437 2.80086C11.8384 2.80833 11.8298 2.81206 11.8245 2.82006C11.7752 2.89328 11.7473 2.97879 11.744 3.06699C11.7375 3.09894 11.7343 3.13146 11.7344 3.16406C11.7514 3.33153 12.1269 7.27766 14.6864 8.99126ZM13.0144 4.25793L19.5904 8.66113C15.968 9.35286 13.8922 7.91446 13.0144 4.25793ZM26.8058 30.9347H16.9296L15.4144 19.2014H28.321L26.8058 30.9347ZM29.3824 18.1347H14.353L13.8677 14.4014H29.8677L29.3824 18.1347ZM24.1488 8.65953L30.7242 4.25686C29.8453 7.92939 27.7589 9.34539 24.1488 8.65953ZM30.1797 3.33793L23.6064 7.73899C24.481 4.10806 26.529 2.64513 30.1797 3.33793ZM17.8629 3.89473C19.2133 4.80139 19.8458 6.56139 20.1301 7.74219L13.5536 3.33633C14.6992 3.11713 16.5082 2.98806 17.8629 3.89473Z" fill="#0065FF"/>
<path id="Vector_2" d="M16.5333 15.4667H15.4667C15.3252 15.4667 15.1896 15.5229 15.0895 15.6229C14.9895 15.7229 14.9333 15.8586 14.9333 16C14.9333 16.1414 14.9895 16.2771 15.0895 16.3771C15.1896 16.4771 15.3252 16.5333 15.4667 16.5333H16.5333C16.6748 16.5333 16.8104 16.4771 16.9105 16.3771C17.0105 16.2771 17.0667 16.1414 17.0667 16C17.0667 15.8586 17.0105 15.7229 16.9105 15.6229C16.8104 15.5229 16.6748 15.4667 16.5333 15.4667ZM18.6667 15.4667C18.5252 15.4667 18.3896 15.5229 18.2895 15.6229C18.1895 15.7229 18.1333 15.8586 18.1333 16C18.1333 16.1414 18.1895 16.2771 18.2895 16.3771C18.3896 16.4771 18.5252 16.5333 18.6667 16.5333H22.4C22.5415 16.5333 22.6771 16.4771 22.7771 16.3771C22.8771 16.2771 22.9333 16.1414 22.9333 16C22.9333 15.8586 22.8771 15.7229 22.7771 15.6229C22.6771 15.5229 22.5415 15.4667 22.4 15.4667H18.6667ZM5.86667 32C9.0176 32 11.7333 23.7216 11.7333 19.6571C11.7333 15.9008 9.60533 14.7952 7.46667 14.5003V12.2528C7.79669 12.0065 8.06487 11.6867 8.25 11.3189C8.43513 10.951 8.53213 10.5451 8.53333 10.1333V2.66667C8.53333 1.95942 8.25238 1.28115 7.75229 0.781049C7.25219 0.280952 6.57391 0 5.86667 0C5.15942 0 4.48115 0.280952 3.98105 0.781049C3.48095 1.28115 3.2 1.95942 3.2 2.66667V10.1333C3.2012 10.5451 3.2982 10.951 3.48333 11.3189C3.66846 11.6867 3.93665 12.0065 4.26667 12.2528V14.5003C2.128 14.7952 0 15.9008 0 19.6571C0 23.7216 2.71573 32 5.86667 32ZM6.8304 15.5077C6.5504 18.0981 6.13333 19.3749 5.86667 19.688C5.6 19.3749 5.18293 18.0981 4.90293 15.5077C5.54425 15.4528 6.18909 15.4528 6.8304 15.5077ZM4.26667 2.66667C4.26667 2.24232 4.43524 1.83535 4.7353 1.5353C5.03535 1.23524 5.44232 1.06667 5.86667 1.06667C6.29101 1.06667 6.69798 1.23524 6.99804 1.5353C7.2981 1.83535 7.46667 2.24232 7.46667 2.66667V10.1333C7.46667 10.5577 7.2981 10.9646 6.99804 11.2647C6.69798 11.5648 6.29101 11.7333 5.86667 11.7333C5.44232 11.7333 5.03535 11.5648 4.7353 11.2647C4.43524 10.9646 4.26667 10.5577 4.26667 10.1333V2.66667ZM5.33333 12.7467C5.68533 12.8187 6.048 12.8187 6.4 12.7467V14.4107C6.04457 14.3971 5.68876 14.3971 5.33333 14.4107V12.7467ZM3.84693 15.6661C4.4016 20.8 5.4224 20.8 5.86667 20.8C6.31093 20.8 7.33173 20.8 7.8864 15.6661C9.83307 16.1157 10.6667 17.3595 10.6667 19.6571C10.6667 23.7397 7.89333 30.9333 5.86667 30.9333C3.84 30.9333 1.06667 23.7397 1.06667 19.6571C1.06667 17.3595 1.90027 16.1157 3.84693 15.6661Z" fill="#0065FF"/>
<path id="Vector_3" d="M5.86927 3.19948C6.16382 3.19948 6.4026 2.9607 6.4026 2.66615C6.4026 2.37159 6.16382 2.13281 5.86927 2.13281C5.57472 2.13281 5.33594 2.37159 5.33594 2.66615C5.33594 2.9607 5.57472 3.19948 5.86927 3.19948Z" fill="#0065FF"/>
</g>
</g>
<defs>
<clipPath id="clip0_11608_323">
<rect width="32" height="32" fill="white"/>
</clipPath>
</defs>
</svg>
