<svg width="33" height="32" viewBox="0 0 33 32" fill="none" xmlns="http://www.w3.org/2000/svg">
<g id="Frame" clip-path="url(#clip0_11608_330)">
<g id="Group">
<g id="Group_2">
<path id="Vector" d="M10.5338 18.2523C10.2338 17.9524 9.82687 17.7839 9.40261 17.7839C8.97834 17.7839 8.57145 17.9524 8.2714 18.2523C8.00944 18.5163 7.84876 18.8641 7.81754 19.2347C7.63549 19.214 7.45249 19.2028 7.26927 19.2011C6.14897 19.1997 5.05673 19.5515 4.1479 20.2065C3.23906 20.8616 2.5599 21.7865 2.20701 22.8497C1.85412 23.913 1.84548 25.0605 2.1823 26.129C2.51913 27.1974 3.18427 28.1325 4.08314 28.8011H1.93594C1.51159 28.8011 1.10462 28.9697 0.804567 29.2698C0.504508 29.5698 0.335938 29.9768 0.335938 30.4011C0.335938 30.8255 0.504508 31.2325 0.804567 31.5325C1.10462 31.8326 1.51159 32.0011 1.93594 32.0011H30.7359C31.1603 32.0011 31.5673 31.8326 31.8673 31.5325C32.1674 31.2325 32.3359 30.8255 32.3359 30.4011C32.3359 29.9768 32.1674 29.5698 31.8673 29.2698C31.5673 28.9697 31.1603 28.8011 30.7359 28.8011H28.7093L30.1237 21.2603C30.4916 21.1514 30.808 20.9136 31.0148 20.5904C31.2217 20.2673 31.3052 19.8804 31.25 19.5006C31.1948 19.1209 31.0046 18.7738 30.7143 18.5229C30.424 18.272 30.053 18.1341 29.6693 18.1345C29.6688 17.6616 29.5114 17.2022 29.2219 16.8284C28.9323 16.4545 28.527 16.1872 28.0693 16.0683V16.0011C28.0687 15.4359 27.8885 14.8855 27.5547 14.4293C27.2209 13.9731 26.7508 13.6348 26.2123 13.4632C25.6737 13.2916 25.0946 13.2955 24.5584 13.4744C24.0222 13.6534 23.5568 13.9981 23.2293 14.4587C22.9555 14.394 22.6716 14.3839 22.394 14.4292C22.1163 14.4744 21.8503 14.574 21.6112 14.7222C21.3722 14.8705 21.1647 15.0645 21.0008 15.2931C20.8368 15.5217 20.7196 15.7805 20.6559 16.0545C20.186 16.1637 19.7669 16.4286 19.4667 16.8063C19.1665 17.1839 19.003 17.652 19.0026 18.1345C18.6187 18.1336 18.2474 18.2711 17.9567 18.5218C17.666 18.7726 17.4754 19.1197 17.4199 19.4996C17.3644 19.8795 17.4478 20.2666 17.6546 20.59C17.8615 20.9134 18.178 21.1514 18.5461 21.2603L19.9626 28.8011H16.3359C16.3351 27.9527 15.9977 27.1393 15.3977 26.5393C14.7978 25.9394 13.9844 25.602 13.1359 25.6011H12.4906C12.606 25.0709 12.6325 24.5251 12.569 23.9862C12.8711 23.959 13.1591 23.8462 13.3993 23.661C13.6395 23.4759 13.8218 23.226 13.9249 22.9408C14.0281 22.6555 14.0476 22.3468 13.9814 22.0508C13.9151 21.7549 13.7658 21.484 13.5509 21.2699L13.1738 20.8929L31.3338 2.73287C31.4844 2.58476 31.6041 2.4083 31.6862 2.21367C31.7682 2.01904 31.8109 1.8101 31.8118 1.59889C31.8127 1.38768 31.7717 1.17839 31.6913 0.983079C31.6109 0.787772 31.4927 0.610317 31.3433 0.46095C31.194 0.311584 31.0166 0.193261 30.8213 0.112809C30.626 0.032356 30.4167 -0.00863504 30.2055 -0.00779999C29.9943 -0.00696495 29.7853 0.0356796 29.5907 0.117674C29.396 0.199668 29.2196 0.31939 29.0714 0.469932L10.9114 18.6299L10.5338 18.2523ZM21.1359 17.0678C21.2774 17.0678 21.413 17.0116 21.5131 16.9116C21.6131 16.8116 21.6693 16.6759 21.6693 16.5345C21.6692 16.3516 21.7161 16.1718 21.8055 16.0123C21.8949 15.8528 22.0239 15.7189 22.1799 15.6236C22.336 15.5283 22.5139 15.4747 22.6966 15.468C22.8794 15.4612 23.0608 15.5016 23.2234 15.5851C23.2876 15.618 23.3577 15.6376 23.4296 15.6426C23.5016 15.6476 23.5738 15.6379 23.6418 15.6143C23.7099 15.5906 23.7725 15.5533 23.8258 15.5048C23.8791 15.4562 23.922 15.3974 23.9519 15.3318C24.1054 15.0019 24.3667 14.7342 24.6928 14.5728C25.0188 14.4114 25.3901 14.3659 25.7455 14.4439C26.1009 14.5219 26.4191 14.7186 26.6476 15.0017C26.8761 15.2848 27.0013 15.6373 27.0026 16.0011C27.0018 16.1392 26.9838 16.2766 26.9493 16.4102C26.9281 16.495 26.928 16.5837 26.9491 16.6685C26.9702 16.7533 27.0118 16.8316 27.0703 16.8966C27.1287 16.9615 27.2023 17.0111 27.2844 17.0409C27.3665 17.0708 27.4547 17.08 27.5413 17.0678C27.8232 17.0692 28.0932 17.1822 28.2921 17.3821C28.491 17.582 28.6026 17.8525 28.6026 18.1345H20.0693C20.0693 17.8516 20.1817 17.5803 20.3817 17.3802C20.5817 17.1802 20.853 17.0678 21.1359 17.0678ZM19.0026 19.2011H29.6693C29.8107 19.2011 29.9464 19.2573 30.0464 19.3573C30.1464 19.4574 30.2026 19.593 30.2026 19.7345C30.2026 19.8759 30.1464 20.0116 30.0464 20.1116C29.9464 20.2116 29.8107 20.2678 29.6693 20.2678H19.0026C18.8612 20.2678 18.7255 20.2116 18.6255 20.1116C18.5255 20.0116 18.4693 19.8759 18.4693 19.7345C18.4693 19.593 18.5255 19.4574 18.6255 19.3573C18.7255 19.2573 18.8612 19.2011 19.0026 19.2011ZM19.6426 21.3345H29.0293L27.6266 28.8011H21.0453L19.6426 21.3345ZM20.6026 29.8678H30.7359C30.8774 29.8678 31.013 29.924 31.1131 30.024C31.2131 30.124 31.2693 30.2597 31.2693 30.4011C31.2693 30.5426 31.2131 30.6782 31.1131 30.7783C31.013 30.8783 30.8774 30.9345 30.7359 30.9345H1.93594C1.79449 30.9345 1.65883 30.8783 1.55881 30.7783C1.45879 30.6782 1.4026 30.5426 1.4026 30.4011C1.4026 30.2597 1.45879 30.124 1.55881 30.024C1.65883 29.924 1.79449 29.8678 1.93594 29.8678H20.6026ZM10.4693 25.6011C10.3278 25.6011 10.1922 25.6573 10.0921 25.7573C9.99213 25.8574 9.93594 25.993 9.93594 26.1345C9.93594 26.2759 9.99213 26.4116 10.0921 26.5116C10.1922 26.6116 10.3278 26.6678 10.4693 26.6678H13.1359C13.7017 26.6678 14.2444 26.8926 14.6444 27.2926C15.0445 27.6927 15.2693 28.2353 15.2693 28.8011H7.26927C6.13768 28.8011 5.05244 28.3516 4.25228 27.5515C3.45213 26.7513 3.0026 25.6661 3.0026 24.5345C3.0026 23.4029 3.45213 22.3176 4.25228 21.5175C5.05244 20.7173 6.13768 20.2678 7.26927 20.2678C7.56537 20.2708 7.8604 20.3038 8.1498 20.3665C8.18714 20.4187 8.22767 20.4678 8.2714 20.5153L11.2879 23.5323C11.3354 23.5761 11.385 23.6166 11.4373 23.6545C11.5001 23.9437 11.5331 24.2385 11.5359 24.5345C11.5359 24.8945 11.4906 25.2529 11.3999 25.6011H10.4693ZM12.7967 22.7782C12.7472 22.8278 12.6884 22.8671 12.6236 22.894C12.5589 22.9208 12.4895 22.9346 12.4194 22.9346C12.3493 22.9346 12.2799 22.9208 12.2152 22.894C12.1504 22.8671 12.0916 22.8278 12.0421 22.7782L9.02554 19.7611C8.92839 19.6605 8.87463 19.5258 8.87584 19.386C8.87706 19.2462 8.93315 19.1124 9.03203 19.0135C9.13092 18.9146 9.26469 18.8585 9.40452 18.8573C9.54436 18.8561 9.67908 18.9099 9.77967 19.007L10.5333 19.7606L10.9861 20.2134L12.7962 22.0235C12.8962 22.1236 12.9524 22.2592 12.9524 22.4006C12.9524 22.542 12.8962 22.6777 12.7962 22.7777L12.7967 22.7782ZM29.8255 1.22407C29.8747 1.17313 29.9336 1.1325 29.9987 1.10455C30.0637 1.07659 30.1337 1.06188 30.2045 1.06127C30.2753 1.06065 30.3456 1.07414 30.4111 1.10096C30.4767 1.12778 30.5362 1.16738 30.5863 1.21746C30.6364 1.26753 30.676 1.32708 30.7028 1.39262C30.7296 1.45817 30.7431 1.5284 30.7425 1.59921C30.7419 1.67003 30.7271 1.74001 30.6992 1.80508C30.6712 1.87015 30.6306 1.929 30.5797 1.9782L12.4197 20.1382L12.2101 19.9291L11.6655 19.3841L29.8255 1.22407Z" fill="#0065FF"/>
<path id="Vector_2" d="M22.7359 22.4H21.6693C21.5278 22.4 21.3922 22.4562 21.2921 22.5562C21.1921 22.6562 21.1359 22.7919 21.1359 22.9333C21.1359 23.0748 21.1921 23.2104 21.2921 23.3105C21.3922 23.4105 21.5278 23.4667 21.6693 23.4667H22.7359C22.8774 23.4667 23.013 23.4105 23.1131 23.3105C23.2131 23.2104 23.2693 23.0748 23.2693 22.9333C23.2693 22.7919 23.2131 22.6562 23.1131 22.5562C23.013 22.4562 22.8774 22.4 22.7359 22.4ZM26.4693 22.4H24.8693C24.7278 22.4 24.5922 22.4562 24.4921 22.5562C24.3921 22.6562 24.3359 22.7919 24.3359 22.9333C24.3359 23.0748 24.3921 23.2104 24.4921 23.3105C24.5922 23.4105 24.7278 23.4667 24.8693 23.4667H26.4693C26.6107 23.4667 26.7464 23.4105 26.8464 23.3105C26.9464 23.2104 27.0026 23.0748 27.0026 22.9333C27.0026 22.7919 26.9464 22.6562 26.8464 22.5562C26.7464 22.4562 26.6107 22.4 26.4693 22.4ZM30.2026 14.9333C30.4127 14.9333 30.6208 14.8919 30.8149 14.8115C31.009 14.7311 31.1854 14.6133 31.334 14.4647C31.4825 14.3161 31.6004 14.1397 31.6808 13.9456C31.7612 13.7515 31.8026 13.5434 31.8026 13.3333C31.8026 13.1232 31.7612 12.9152 31.6808 12.721C31.6004 12.5269 31.4825 12.3505 31.334 12.202C31.1854 12.0534 31.009 11.9355 30.8149 11.8551C30.6208 11.7747 30.4127 11.7333 30.2026 11.7333C29.7783 11.7333 29.3713 11.9019 29.0712 12.202C28.7712 12.502 28.6026 12.909 28.6026 13.3333C28.6026 13.7577 28.7712 14.1646 29.0712 14.4647C29.3713 14.7648 29.7783 14.9333 30.2026 14.9333ZM30.2026 12.8C30.3441 12.8 30.4797 12.8562 30.5797 12.9562C30.6797 13.0562 30.7359 13.1919 30.7359 13.3333C30.7359 13.4748 30.6797 13.6104 30.5797 13.7105C30.4797 13.8105 30.3441 13.8667 30.2026 13.8667C30.0612 13.8667 29.9255 13.8105 29.8255 13.7105C29.7255 13.6104 29.6693 13.4748 29.6693 13.3333C29.6693 13.1919 29.7255 13.0562 29.8255 12.9562C29.9255 12.8562 30.0612 12.8 30.2026 12.8ZM27.5359 8.53333C27.1116 8.53333 26.7046 8.7019 26.4046 9.00196C26.1045 9.30202 25.9359 9.70899 25.9359 10.1333C25.9359 10.5577 26.1045 10.9646 26.4046 11.2647C26.7046 11.5648 27.1116 11.7333 27.5359 11.7333C27.9603 11.7333 28.3673 11.5648 28.6673 11.2647C28.9674 10.9646 29.1359 10.5577 29.1359 10.1333C29.1359 9.70899 28.9674 9.30202 28.6673 9.00196C28.3673 8.7019 27.9603 8.53333 27.5359 8.53333ZM27.5359 10.6667C27.3945 10.6667 27.2588 10.6105 27.1588 10.5105C27.0588 10.4104 27.0026 10.2748 27.0026 10.1333C27.0026 9.99189 27.0588 9.85623 27.1588 9.75621C27.2588 9.65619 27.3945 9.6 27.5359 9.6C27.6774 9.6 27.813 9.65619 27.9131 9.75621C28.0131 9.85623 28.0693 9.99189 28.0693 10.1333C28.0693 10.2748 28.0131 10.4104 27.9131 10.5105C27.813 10.6105 27.6774 10.6667 27.5359 10.6667ZM14.7311 4.72348e-08C14.5923 -5.8334e-05 14.459 0.054004 14.3594 0.150702C14.2598 0.247401 14.2018 0.379116 14.1978 0.517867V0.533333C14.1978 0.7296 14.1493 5.33333 9.92581 5.33333C9.78436 5.33333 9.6487 5.38952 9.54868 5.48954C9.44866 5.58956 9.39247 5.72522 9.39247 5.86667C9.39247 6.00812 9.44866 6.14377 9.54868 6.24379C9.6487 6.34381 9.78436 6.4 9.92581 6.4C14.1327 6.4 14.1973 11.0048 14.1978 11.2C14.1959 11.3414 14.2503 11.4779 14.3489 11.5792C14.4476 11.6806 14.5825 11.7386 14.7239 11.7405C14.8654 11.7424 15.0018 11.6881 15.1032 11.5894C15.2045 11.4907 15.2626 11.3558 15.2645 11.2144V11.2C15.2645 11.0037 15.313 6.4 19.5359 6.4C19.6774 6.4 19.813 6.34381 19.9131 6.24379C20.0131 6.14377 20.0693 6.00812 20.0693 5.86667C20.0693 5.72522 20.0131 5.58956 19.9131 5.48954C19.813 5.38952 19.6774 5.33333 19.5359 5.33333C15.3386 5.33333 15.2655 0.746667 15.2645 0.533333C15.2645 0.391885 15.2083 0.256229 15.1083 0.15621C15.0082 0.0561904 14.8726 4.72348e-08 14.7311 4.72348e-08ZM17.105 5.86667C16.0129 6.44278 15.1687 7.39789 14.7311 8.55253C14.2936 7.39789 13.4494 6.44278 12.3573 5.86667C13.4494 5.29055 14.2936 4.33544 14.7311 3.1808C15.1687 4.33544 16.0129 5.29055 17.105 5.86667ZM3.53594 16.0027V16.0059C3.53672 16.1473 3.59365 16.2827 3.69422 16.3821C3.79479 16.4816 3.93076 16.537 4.0722 16.5363C4.21365 16.5355 4.349 16.4786 4.44847 16.378C4.54794 16.2774 4.60338 16.1414 4.6026 16C4.6026 15.8693 4.6474 12.8 7.26927 12.8C7.41072 12.8 7.54638 12.7438 7.64639 12.6438C7.74641 12.5438 7.8026 12.4081 7.8026 12.2667C7.8026 12.1252 7.74641 11.9896 7.64639 11.8895C7.54638 11.7895 7.41072 11.7333 7.26927 11.7333C4.6474 11.7333 4.6026 8.66293 4.6026 8.53333V8.53013C4.60218 8.38869 4.54558 8.2532 4.44526 8.15348C4.34494 8.05376 4.20912 7.99798 4.06767 7.9984C3.92622 7.99882 3.79074 8.05542 3.69102 8.15574C3.5913 8.25606 3.53551 8.39188 3.53594 8.53333C3.53594 8.664 3.49114 11.7333 0.869271 11.7333C0.727822 11.7333 0.592167 11.7895 0.492147 11.8895C0.392128 11.9896 0.335938 12.1252 0.335938 12.2667C0.335938 12.4081 0.392128 12.5438 0.492147 12.6438C0.592167 12.7438 0.727822 12.8 0.869271 12.8C3.49114 12.8 3.53594 15.8704 3.53594 16V16.0027ZM2.81914 12.2667C3.35929 11.9066 3.7914 11.4064 4.06927 10.8197C4.34714 11.4064 4.77925 11.9066 5.3194 12.2667C4.77936 12.6269 4.34728 13.127 4.06927 13.7136C3.79127 13.127 3.35918 12.6269 2.81914 12.2667ZM6.0922 4.37707L6.8922 5.17707C6.99279 5.27422 7.12751 5.32797 7.26735 5.32676C7.40719 5.32554 7.54096 5.26945 7.63984 5.17057C7.73873 5.07169 7.79482 4.93792 7.79603 4.79808C7.79725 4.65824 7.74349 4.52352 7.64634 4.42293L6.84634 3.62293C6.79714 3.57199 6.73829 3.53136 6.67322 3.50341C6.60815 3.47546 6.53817 3.46075 6.46735 3.46013C6.39654 3.45952 6.32631 3.47301 6.26076 3.49983C6.19522 3.52664 6.13567 3.56625 6.08559 3.61632C6.03552 3.6664 5.99592 3.72595 5.9691 3.79149C5.94228 3.85704 5.92879 3.92727 5.9294 3.99808C5.93002 4.0689 5.94473 4.13888 5.97268 4.20395C6.00064 4.26902 6.04127 4.32787 6.0922 4.37707ZM4.4922 2.77707C4.59279 2.87422 4.72751 2.92797 4.86735 2.92676C5.00719 2.92554 5.14096 2.86945 5.23984 2.77057C5.33873 2.67169 5.39482 2.53792 5.39603 2.39808C5.39725 2.25824 5.34349 2.12352 5.24634 2.02293L4.44634 1.22293C4.34575 1.12578 4.21103 1.07203 4.07119 1.07324C3.93135 1.07446 3.79759 1.13055 3.6987 1.22943C3.59982 1.32831 3.54373 1.46208 3.54251 1.60192C3.5413 1.74176 3.59505 1.87648 3.6922 1.97707L4.4922 2.77707ZM3.6922 5.17707C3.79222 5.27705 3.92785 5.33322 4.06927 5.33322C4.21069 5.33322 4.34632 5.27705 4.44634 5.17707L5.24634 4.37707C5.34349 4.27648 5.39725 4.14176 5.39603 4.00192C5.39482 3.86208 5.33873 3.72831 5.23984 3.62943C5.14096 3.53055 5.00719 3.47446 4.86735 3.47324C4.72751 3.47203 4.59279 3.52578 4.4922 3.62293L3.6922 4.42293C3.59222 4.52295 3.53605 4.65858 3.53605 4.8C3.53605 4.94142 3.59222 5.07705 3.6922 5.17707ZM6.46927 2.93333C6.61071 2.9333 6.74634 2.87709 6.84634 2.77707L7.64634 1.97707C7.69728 1.92787 7.73791 1.86902 7.76586 1.80395C7.79381 1.73888 7.80852 1.6689 7.80914 1.59808C7.80975 1.52727 7.79626 1.45704 7.76944 1.39149C7.74263 1.32595 7.70302 1.2664 7.65295 1.21632C7.60287 1.16625 7.54332 1.12664 7.47778 1.09983C7.41224 1.07301 7.34201 1.05952 7.27119 1.06013C7.20038 1.06075 7.13039 1.07546 7.06532 1.10341C7.00025 1.13136 6.9414 1.17199 6.8922 1.22293L6.0922 2.02293C6.01764 2.09752 5.96686 2.19254 5.94629 2.29598C5.92572 2.39942 5.93629 2.50664 5.97664 2.60408C6.017 2.70152 6.08534 2.78481 6.17303 2.84341C6.26071 2.90202 6.3638 2.93331 6.46927 2.93333Z" fill="#0065FF"/>
</g>
</g>
</g>
<defs>
<clipPath id="clip0_11608_330">
<rect width="32" height="32" fill="white" transform="translate(0.335938)"/>
</clipPath>
</defs>
</svg>
