<svg width="33" height="32" viewBox="0 0 33 32" fill="none" xmlns="http://www.w3.org/2000/svg">
<g id="Frame" clip-path="url(#clip0_11608_317)">
<g id="Group">
<path id="Vector" d="M1.35505 12.9021C1.45846 13.0268 1.58636 13.1291 1.73084 13.2024C1.87532 13.2758 2.03331 13.3188 2.19506 13.3287H2.2708C2.46821 13.3284 2.66246 13.2791 2.83613 13.1853V21.584C2.83728 22.6233 3.6795 23.4655 4.71876 23.4667H15.6151L12.5106 27.0565C11.4309 28.3046 11.5673 30.1918 12.8155 31.2716C14.0636 32.3514 15.9508 32.215 17.0306 30.9668L23.4305 23.5637C25.7848 24.2063 28.3035 23.5603 30.0579 21.8638C31.8122 20.1673 32.5424 17.6717 31.9791 15.2971C31.936 15.1112 31.8421 14.941 31.7079 14.8053C31.5737 14.6696 31.4045 14.5738 31.2191 14.5286C31.0363 14.4829 30.8445 14.489 30.665 14.5463C30.4855 14.6035 30.3256 14.7097 30.2031 14.8528L27.2384 18.2816L24.0987 18.224L23.5889 15.1248L26.5541 11.6971C26.6776 11.5552 26.7594 11.3819 26.7904 11.1964C26.8214 11.0108 26.8003 10.8203 26.7296 10.646C26.6578 10.4693 26.5384 10.316 26.3848 10.2031C26.2312 10.0901 26.0492 10.0219 25.8592 10.006C25.1689 9.94873 24.474 9.99619 23.7979 10.1468L21.5025 8.05723V3.33904C21.5016 2.67372 20.9625 2.13459 20.2972 2.13375H17.9079C17.2426 2.13464 16.7035 2.67377 16.7026 3.33904V3.69902L12.9779 0.316677C12.5224 -0.105559 11.8185 -0.105559 11.3629 0.316677L0.569995 10.1154C0.0784186 10.5704 0.0314393 11.3314 0.463333 11.8434L1.35505 12.9021ZM9.76927 22.4V16.5335C9.76927 16.239 10.008 16.0002 10.3026 16.0002H14.0358C14.3303 16.0002 14.5691 16.239 14.5691 16.5335V22.4001H9.76927V22.4ZM15.6358 22.4V16.5335C15.6358 15.6499 14.9195 14.9335 14.0359 14.9335H10.3026C9.41899 14.9335 8.70265 15.6499 8.70265 16.5335V22.4001H4.71871C4.26828 22.3995 3.90332 22.0345 3.90274 21.5841V12.2696L12.1692 4.76354L20.2641 12.1186C20.1835 12.2023 20.0977 12.2786 20.0214 12.3671C18.2762 14.3786 17.8447 17.215 18.9126 19.6545L16.5377 22.4H15.6358ZM25.2538 11.0429C25.401 11.0429 25.5488 11.0483 25.696 11.0594L22.6224 14.6135C22.5713 14.6727 22.5338 14.7424 22.5126 14.8177C22.4914 14.893 22.487 14.972 22.4997 15.0492L23.1221 18.8326C23.1423 18.9557 23.205 19.0678 23.2994 19.1495C23.3937 19.2311 23.5136 19.2771 23.6384 19.2795L27.4719 19.3499C27.6305 19.3529 27.7821 19.2853 27.8858 19.1654L30.9609 15.6092C31.4234 17.6645 30.7447 19.8096 29.1843 21.225C27.6239 22.6404 25.4229 23.1071 23.4224 22.4469C23.3221 22.4142 23.2144 22.4119 23.1128 22.4404C23.0112 22.4689 22.9203 22.5268 22.8517 22.6069L16.2225 30.2687C15.8884 30.6516 15.4162 30.8866 14.9092 30.9223C14.4022 30.9579 13.9018 30.7913 13.5173 30.4589C13.1329 30.1265 12.8958 29.6553 12.8578 29.1485C12.8199 28.6417 12.9842 28.1405 13.3149 27.7546L19.9451 20.0907C20.0139 20.0111 20.0576 19.9129 20.0707 19.8086C20.0838 19.7042 20.0657 19.5982 20.0187 19.5041C19.5735 18.6123 19.3636 17.6214 19.409 16.6257C19.4544 15.6299 19.7535 14.6623 20.278 13.8146C20.8025 12.967 21.5349 12.2674 22.4058 11.7824C23.2766 11.2974 24.257 11.0431 25.2538 11.0435V11.0429H25.2538ZM17.7692 3.33904C17.7701 3.30256 17.785 3.26783 17.8108 3.24202C17.8366 3.21622 17.8714 3.20131 17.9079 3.20036H20.2971C20.3336 3.20131 20.3683 3.21622 20.3941 3.24202C20.42 3.26783 20.4349 3.30256 20.4358 3.33904V7.08883L17.7692 4.66753V3.33904ZM1.28943 10.9015L12.0818 1.10283C12.1056 1.0799 12.1373 1.06709 12.1703 1.06709C12.2033 1.06709 12.2351 1.0799 12.2589 1.10283L22.6117 10.5069C22.0588 10.7381 21.538 11.0398 21.0624 11.4045L12.5292 3.65052C12.4311 3.56132 12.3032 3.5119 12.1706 3.5119C12.0379 3.5119 11.91 3.56132 11.8119 3.65052L2.99607 11.6536H2.99286L2.3561 12.2322C2.33083 12.2547 2.29815 12.267 2.26434 12.2669C2.24617 12.2655 2.2285 12.2603 2.2125 12.2515C2.1965 12.2428 2.18254 12.2308 2.17154 12.2162L1.27715 11.1571C1.24812 11.1201 1.23338 11.074 1.23564 11.027C1.23789 10.9801 1.25699 10.9355 1.28943 10.9015Z" fill="#0065FF"/>
<path id="Vector_2" fill-rule="evenodd" clip-rule="evenodd" d="M15.555 27.3121L14.5764 28.4539C14.4887 28.5619 14.4467 28.6998 14.4592 28.8383C14.4718 28.9768 14.5379 29.1049 14.6436 29.1953C14.7492 29.2858 14.8861 29.3314 15.0248 29.3224C15.1636 29.3134 15.2934 29.2505 15.3865 29.1472L16.3652 28.0054C16.4525 27.8974 16.4942 27.7596 16.4815 27.6213C16.4688 27.483 16.4027 27.3551 16.2972 27.2648C16.1917 27.1746 16.0551 27.129 15.9165 27.1378C15.7779 27.1466 15.6482 27.2091 15.555 27.3121Z" fill="#0065FF"/>
</g>
</g>
<defs>
<clipPath id="clip0_11608_317">
<rect width="32" height="32" fill="white" transform="translate(0.167969)"/>
</clipPath>
</defs>
</svg>
