<svg width="33" height="32" viewBox="0 0 33 32" fill="none" xmlns="http://www.w3.org/2000/svg">
<g id="Group">
<path id="Vector" d="M24.3041 19.2784V18.1318C24.3029 17.0006 23.8531 15.9161 23.0536 15.1162C22.2542 14.3163 21.1702 13.8664 20.0395 13.8651H13.6426C13.0755 13.8641 12.5139 13.9769 11.9911 14.1968C11.4683 14.4166 10.9948 14.7391 10.5987 15.1451C10.1635 15.3489 9.81031 15.6946 9.59722 16.1255C9.38413 16.5564 9.32374 17.047 9.42596 17.5168C9.35798 18.1023 9.35101 18.6932 9.40517 19.28C9.08701 19.3845 8.81002 19.587 8.61378 19.8585C8.41754 20.1299 8.31209 20.4565 8.3125 20.7915C8.31292 21.1265 8.41917 21.4529 8.61608 21.7238C8.813 21.9948 9.09049 22.1966 9.4089 22.3003C9.51337 23.0607 9.88807 23.758 10.4644 24.2646L8.89928 29.9712C8.83307 30.207 8.822 30.4549 8.86694 30.6957C8.91187 30.9365 9.0116 31.1636 9.15839 31.3596C9.30519 31.5557 9.49511 31.7152 9.71345 31.826C9.93179 31.9368 10.1727 31.9958 10.4175 31.9984H23.2646C23.5092 31.9954 23.7498 31.9362 23.9678 31.8253C24.1858 31.7144 24.3754 31.5549 24.522 31.359C24.6685 31.1631 24.7681 30.9361 24.8129 30.6955C24.8578 30.455 24.8468 30.2074 24.7807 29.9718L23.2172 24.2694C23.7911 23.7634 24.1649 23.0684 24.2705 22.3104C24.5873 22.2054 24.8634 22.004 25.0603 21.7343C25.2572 21.4647 25.365 21.1403 25.3687 20.8064C25.3724 20.4725 25.2718 20.1458 25.0809 19.8719C24.8901 19.598 24.6185 19.3905 24.3041 19.2784ZM18.7191 14.9318L18.2132 16.1963C18.174 16.2955 18.1059 16.3806 18.0176 16.4405C17.9294 16.5003 17.8251 16.5321 17.7185 16.5318H15.9636C15.857 16.5321 15.7527 16.5003 15.6645 16.4405C15.5762 16.3806 15.5081 16.2955 15.4689 16.1963L14.963 14.9318H18.7191ZM13.8148 14.9318L14.4785 16.5926C14.5964 16.8901 14.8011 17.1452 15.066 17.3246C15.3309 17.504 15.6437 17.5994 15.9636 17.5984H17.7185C18.0384 17.5994 18.3512 17.504 18.6161 17.3246C18.881 17.1452 19.0857 16.8901 19.2036 16.5926L19.8673 14.9318C20.6161 14.8952 21.3541 15.1216 21.9538 15.5718C20.3178 18.4427 20.5726 17.4971 20.5726 21.3318H19.7389L19.4675 20.9435C19.2252 20.6024 18.859 20.3698 18.4474 20.2956C18.0357 20.2215 17.6114 20.3116 17.2654 20.5467L16.5878 21.0336C15.9259 19.6194 14.8838 18.4173 13.5781 17.5616C13.693 17.0932 13.6441 16.5996 13.4394 16.1629C13.2348 15.7262 12.8867 15.3728 12.4533 15.1616C12.886 14.9904 13.3499 14.9121 13.8148 14.9318ZM21.0918 23.9984C21.1032 23.7046 21.0553 23.4115 20.951 23.1366C20.8466 22.8617 20.688 22.6107 20.4846 22.3984H23.1697C23.0516 22.8589 22.7828 23.2666 22.4063 23.5565C22.0297 23.8465 21.567 24.0021 21.0918 23.9984ZM10.5198 22.3984H16.5745C16.7866 22.3984 16.99 22.4827 17.1399 22.6328C17.2899 22.7828 17.3741 22.9863 17.3741 23.1984C17.3741 23.4106 17.2899 23.6141 17.1399 23.7641C16.99 23.9142 16.7866 23.9984 16.5745 23.9984H12.5764C12.1051 23.9967 11.6476 23.8387 11.2755 23.5492C10.9034 23.2597 10.6377 22.855 10.5198 22.3984ZM10.4441 17.0651C10.4441 16.7822 10.5565 16.5109 10.7564 16.3109C10.9563 16.1108 11.2275 15.9984 11.5103 15.9984C11.793 15.9984 12.0642 16.1108 12.2642 16.3109C12.4641 16.5109 12.5764 16.7822 12.5764 17.0651C12.5764 17.348 12.4641 17.6193 12.2642 17.8194C12.0642 18.0194 11.793 18.1318 11.5103 18.1318C11.2275 18.1318 10.9563 18.0194 10.7564 17.8194C10.5565 17.6193 10.4441 17.348 10.4441 17.0651ZM13.0743 18.5051C14.1341 19.216 14.9912 20.19 15.5617 21.3318H12.8787C12.4967 20.6373 12.2439 19.8792 12.1324 19.0944C12.4931 18.9852 12.8182 18.7818 13.0743 18.5051ZM19.9132 23.4427C19.969 23.524 20.0072 23.6161 20.0254 23.713C20.0437 23.8099 20.0415 23.9096 20.019 24.0056C19.9965 24.1016 19.9542 24.1919 19.8949 24.2707C19.8356 24.3494 19.7604 24.4149 19.6744 24.463C19.3892 24.6022 19.0453 24.5163 18.8587 24.2587L18.3875 23.6187C18.4766 23.2449 18.4469 22.8525 18.3027 22.4963C18.1584 22.1401 17.9067 21.8378 17.5826 21.6315L17.8779 21.4182C17.9914 21.3416 18.1306 21.3131 18.265 21.3389C18.3994 21.3647 18.5182 21.4427 18.5954 21.5558L19.9132 23.4427ZM13.1095 25.0651H16.5745C17.0223 25.0651 17.4552 24.903 17.7931 24.6091L18 24.8896C18.1427 25.0897 18.3273 25.2562 18.5409 25.3777C18.7545 25.4991 18.992 25.5725 19.2369 25.5928C19.4817 25.6131 19.728 25.5798 19.9587 25.4952C20.1894 25.4106 20.3989 25.2768 20.5726 25.103V28.2651C20.5726 28.4066 20.5164 28.5422 20.4165 28.6422C20.3165 28.7422 20.1809 28.7984 20.0395 28.7984H13.6426C13.5012 28.7984 13.3656 28.7422 13.2657 28.6422C13.1657 28.5422 13.1095 28.4066 13.1095 28.2651V25.0651ZM9.5379 20.4251C9.59583 20.3656 9.66684 20.3205 9.74527 20.2934C9.95371 20.2192 10.1334 20.0811 10.2589 19.8988C10.3844 19.7165 10.4492 19.4992 10.4441 19.2779V18.9046C10.6366 19.0198 10.8461 19.1035 11.0652 19.1526C11.1688 19.904 11.3762 20.6374 11.6814 21.3318H9.97076C9.862 21.3413 9.75293 21.3173 9.65814 21.2631C9.56335 21.2089 9.48734 21.1271 9.44029 21.0285C9.39323 20.9299 9.37737 20.8194 9.39481 20.7115C9.41225 20.6037 9.46217 20.5038 9.5379 20.4251ZM23.2646 30.9318H10.4175C10.3368 30.9287 10.2579 30.9073 10.1867 30.8691C10.1156 30.8309 10.0541 30.7769 10.007 30.7113C9.95989 30.6457 9.92839 30.5702 9.9149 30.4906C9.90142 30.4109 9.9063 30.3292 9.92918 30.2518L11.4127 24.8427C11.6164 24.9227 11.8275 24.9814 12.0434 25.0171V28.2651C12.0434 28.6895 12.2119 29.0964 12.5118 29.3965C12.8117 29.6965 13.2185 29.8651 13.6426 29.8651H20.0395C20.4637 29.8651 20.8704 29.6965 21.1703 29.3965C21.4703 29.0964 21.6387 28.6895 21.6387 28.2651V25.0171C21.8541 24.9792 22.0652 24.919 22.2678 24.8379L23.7529 30.2523C23.7758 30.3297 23.7807 30.4114 23.7672 30.491C23.7537 30.5706 23.7222 30.6461 23.6751 30.7117C23.628 30.7773 23.5665 30.8312 23.4954 30.8693C23.4242 30.9075 23.3453 30.9288 23.2646 30.9318ZM24.1442 21.1718C24.0957 21.2218 24.0377 21.2617 23.9737 21.2892C23.9096 21.3167 23.8407 21.3311 23.771 21.3318H21.6387C21.6387 18.583 21.5689 18.3894 21.852 17.9056L22.7182 16.3872C23.3382 17.336 23.239 18.0939 23.239 19.2784C23.2347 19.4994 23.3 19.7162 23.4256 19.8981C23.5512 20.0799 23.7308 20.2176 23.939 20.2918C24.0249 20.3204 24.1021 20.3706 24.1632 20.4376C24.2242 20.5045 24.2671 20.5861 24.2877 20.6743C24.3083 20.7626 24.3059 20.8547 24.2808 20.9418C24.2556 21.0289 24.2086 21.108 24.1442 21.1718ZM16.8411 12.7984C17.6893 12.7984 18.5029 12.4613 19.1027 11.8612C19.7025 11.2611 20.0395 10.4471 20.0395 9.59844C20.0395 8.74974 19.7025 7.93581 19.1027 7.3357C18.5029 6.73558 17.6893 6.39844 16.8411 6.39844C15.9928 6.39844 15.1792 6.73558 14.5794 7.3357C13.9796 7.93581 13.6426 8.74974 13.6426 9.59844C13.6426 10.4471 13.9796 11.2611 14.5794 11.8612C15.1792 12.4613 15.9928 12.7984 16.8411 12.7984ZM16.8411 7.4651C17.4066 7.4651 17.9489 7.68987 18.3488 8.08994C18.7487 8.49002 18.9734 9.03264 18.9734 9.59844C18.9734 10.1642 18.7487 10.7069 18.3488 11.1069C17.9489 11.507 17.4066 11.7318 16.8411 11.7318C16.2755 11.7318 15.7332 11.507 15.3333 11.1069C14.9334 10.7069 14.7087 10.1642 14.7087 9.59844C14.7087 9.03264 14.9334 8.49002 15.3333 8.08994C15.7332 7.68987 16.2755 7.4651 16.8411 7.4651Z" fill="#0065FF"/>
<path id="Vector_2" d="M31.8862 6.53759L17.4931 0.137588C17.2885 0.0468675 17.0671 0 16.8433 0C16.6195 0 16.3981 0.0468675 16.1935 0.137588L1.80042 6.53759C1.60639 6.62154 1.43091 6.74314 1.28414 6.89537C1.13738 7.04759 1.02224 7.22742 0.945377 7.42445C0.868518 7.62148 0.831467 7.8318 0.836367 8.04325C0.841268 8.2547 0.888022 8.46308 0.973927 8.65633C1.05983 8.84958 1.18318 9.02388 1.33684 9.16914C1.4905 9.3144 1.67142 9.42773 1.86914 9.50259C2.06686 9.57745 2.27745 9.61235 2.48873 9.60526C2.70002 9.59818 2.9078 9.54926 3.10006 9.46132L16.6269 3.44639C16.695 3.4161 16.7688 3.40045 16.8433 3.40045C16.9179 3.40045 16.9916 3.4161 17.0597 3.44639C31.818 9.99945 30.7513 9.59945 31.2364 9.59945C31.6028 9.59953 31.9582 9.47368 32.243 9.24296C32.5279 9.01225 32.7248 8.69067 32.801 8.33204C32.8772 7.9734 32.8279 7.59948 32.6615 7.27282C32.4951 6.94617 32.221 6.68661 31.8862 6.53759ZM31.7231 8.21599C31.6005 8.48106 31.2892 8.60105 31.02 8.48692L17.4931 2.47146C17.2885 2.38073 17.0671 2.33387 16.8433 2.33387C16.6195 2.33387 16.3981 2.38073 16.1935 2.47146L2.66774 8.48639C2.53859 8.54396 2.39187 8.54784 2.25986 8.49718C2.12784 8.44652 2.02135 8.34547 1.96381 8.21625C1.90627 8.08704 1.90239 7.94025 1.95302 7.80818C2.00366 7.6761 2.10466 7.56956 2.23381 7.51199L16.6269 1.11199C16.695 1.0817 16.7688 1.06605 16.8433 1.06605C16.9179 1.06605 16.9916 1.0817 17.0597 1.11199L31.4528 7.51199C31.5819 7.5695 31.683 7.67598 31.7337 7.808C31.7843 7.94002 31.7805 8.08677 31.7231 8.21599Z" fill="#0065FF"/>
</g>
</svg>
