<svg width="33" height="32" viewBox="0 0 33 32" fill="none" xmlns="http://www.w3.org/2000/svg">
<g id="Frame">
<g id="Group">
<path id="Vector" d="M30.923 25.159L29.9865 22.345C29.7886 21.7581 29.466 21.2209 29.0409 20.7704C28.6158 20.3199 28.0983 19.9667 27.5238 19.735C26.9494 19.5034 26.3316 19.3987 25.7129 19.4283C25.0942 19.4579 24.4892 19.6211 23.9395 19.9065L19.327 15.294L19.5985 15.023L20.659 16.0835C20.7527 16.1772 20.8799 16.2299 21.0125 16.2299C21.1451 16.2299 21.2722 16.1772 21.366 16.0835L22.073 15.3765C22.1195 15.3301 22.1564 15.2749 22.1815 15.2142C22.2067 15.1535 22.2196 15.0885 22.2196 15.0228C22.2196 14.9571 22.2067 14.892 22.1815 14.8313C22.1564 14.7706 22.1195 14.7154 22.073 14.669L21.7195 14.3155L22.427 13.6085L22.7805 13.962C22.8742 14.0557 23.0014 14.1084 23.134 14.1084C23.2666 14.1084 23.3937 14.0557 23.4875 13.962L30.5585 6.89101C30.8397 6.60972 30.9977 6.22826 30.9977 5.83051C30.9977 5.43277 30.8397 5.05131 30.5585 4.77001L27.7305 1.94151C27.5912 1.8022 27.4258 1.69169 27.2438 1.61629C27.0618 1.54089 26.8667 1.50208 26.6697 1.50208C26.4727 1.50208 26.2777 1.54089 26.0956 1.61629C25.9136 1.69169 25.7483 1.8022 25.609 1.94151L18.538 9.01251C18.4442 9.10628 18.3916 9.23343 18.3916 9.36601C18.3916 9.4986 18.4442 9.62575 18.538 9.71951L18.8915 10.073L18.1845 10.7805L17.8305 10.4265C17.7349 10.3363 17.6084 10.286 17.477 10.286C17.3455 10.286 17.2191 10.3363 17.1235 10.4265L16.4165 11.134C16.3227 11.2278 16.2701 11.3549 16.2701 11.4875C16.2701 11.6201 16.3227 11.7472 16.4165 11.841L17.477 12.902L17.206 13.1735L12.5935 8.56101C13.0104 7.75125 13.1607 6.83044 13.023 5.93012C12.8852 5.02981 12.4665 4.19607 11.8265 3.54801C11.3536 3.08041 10.7807 2.72633 10.151 2.51251L7.34148 1.57751C7.07669 1.48871 6.79231 1.47593 6.52062 1.54062C6.24893 1.60532 6.00083 1.7449 5.80448 1.94351L5.53448 2.21351C5.44075 2.30728 5.38809 2.43443 5.38809 2.56701C5.38809 2.6996 5.44075 2.82675 5.53448 2.92051L8.36448 5.74551C8.41104 5.79196 8.44799 5.84713 8.47319 5.90788C8.4984 5.96862 8.51137 6.03375 8.51137 6.09951C8.51137 6.16528 8.4984 6.2304 8.47319 6.29115C8.44799 6.35189 8.41104 6.40707 8.36448 6.45351L6.94798 7.86851C6.85248 7.95911 6.72586 8.00961 6.59423 8.00961C6.4626 8.00961 6.33598 7.95911 6.24048 7.86851L3.41548 5.03851C3.32198 4.94498 3.19523 4.89231 3.06298 4.89201C2.93038 4.89204 2.80323 4.94474 2.70948 5.03851L2.43948 5.30851C2.24096 5.50482 2.10144 5.75283 2.03674 6.02442C1.97205 6.29601 1.98478 6.58029 2.07348 6.84501L3.00998 9.65901C3.22389 10.2877 3.57779 10.8596 4.04498 11.3315C4.69299 11.9711 5.52652 12.3895 6.42653 12.5271C7.32654 12.6646 8.24701 12.5143 9.05648 12.0975L13.669 16.71L5.96898 24.41L4.69798 24.346C4.6126 24.3412 4.52741 24.3585 4.45067 24.3962C4.37393 24.434 4.30825 24.4909 4.25998 24.5615L2.08598 27.7185C2.01976 27.8148 1.98935 27.9312 2.00004 28.0476C2.01072 28.164 2.06183 28.2729 2.14448 28.3555L4.14448 30.3555C4.22762 30.4387 4.3374 30.4899 4.45454 30.5001C4.57168 30.5104 4.68868 30.479 4.78498 30.4115L7.91948 28.215C7.9879 28.1671 8.04324 28.1029 8.08045 28.0281C8.11766 27.9534 8.13554 27.8705 8.13248 27.787L8.08548 26.537L15.79 18.831L20.4025 23.4435C20.1165 23.9936 19.953 24.5991 19.9234 25.2184C19.8937 25.8377 19.9985 26.456 20.2306 27.0309C20.4627 27.6058 20.8166 28.1237 21.2679 28.5488C21.7192 28.9739 22.2572 29.2962 22.845 29.4935L25.6545 30.4285C25.9193 30.5173 26.2037 30.5301 26.4753 30.4654C26.747 30.4007 26.9951 30.2611 27.1915 30.0625L27.4615 29.7925C27.5552 29.6988 27.6079 29.5716 27.6079 29.439C27.6079 29.3064 27.5552 29.1793 27.4615 29.0855L24.6325 26.261C24.5858 26.2146 24.5488 26.1594 24.5236 26.0986C24.4983 26.0378 24.4853 25.9726 24.4853 25.9068C24.4853 25.8409 24.4983 25.7758 24.5236 25.715C24.5488 25.6542 24.5858 25.599 24.6325 25.5525L26.0475 24.1375C26.1429 24.0468 26.2696 23.9962 26.4012 23.9962C26.5329 23.9962 26.6595 24.0468 26.755 24.1375L29.58 26.9675C29.6264 27.014 29.6816 27.0509 29.7423 27.076C29.803 27.1012 29.868 27.1142 29.9337 27.1142C29.9994 27.1142 30.0645 27.1012 30.1252 27.076C30.1859 27.0509 30.241 27.014 30.2875 26.9675L30.5575 26.6975C30.756 26.5008 30.8955 26.2524 30.9601 25.9805C31.0247 25.7086 31.0119 25.424 30.923 25.159ZM23.134 12.902L22.427 12.195L27.731 6.89101C27.8261 6.80014 27.9527 6.74944 28.0842 6.74944C28.2158 6.74944 28.3423 6.80014 28.4375 6.89101L28.791 7.24451L23.134 12.902ZM27.0235 2.64851L29.8515 5.47701C29.9452 5.57078 29.9979 5.69793 29.9979 5.83051C29.9979 5.9631 29.9452 6.09025 29.8515 6.18401L29.498 6.53751L29.1445 6.18401C28.8588 5.9112 28.479 5.75896 28.084 5.75896C27.689 5.75896 27.3091 5.9112 27.0235 6.18401L21.72 11.4875L21.0125 10.78L26.316 5.47701C26.4553 5.33772 26.5658 5.17235 26.6412 4.99035C26.7166 4.80834 26.7554 4.61327 26.7554 4.41626C26.7554 4.21926 26.7166 4.02418 26.6412 3.84218C26.5658 3.66017 26.4553 3.4948 26.316 3.35551L25.9625 3.00201L26.316 2.64851C26.3624 2.60203 26.4176 2.56515 26.4783 2.53998C26.539 2.51482 26.604 2.50187 26.6697 2.50187C26.7354 2.50187 26.8005 2.51482 26.8612 2.53998C26.9219 2.56515 26.977 2.60203 27.0235 2.64851ZM25.2555 3.70901L25.609 4.06251C25.6555 4.10895 25.6924 4.16409 25.7175 4.22479C25.7427 4.28549 25.7556 4.35056 25.7556 4.41626C25.7556 4.48197 25.7427 4.54703 25.7175 4.60773C25.6924 4.66843 25.6555 4.72358 25.609 4.77001L20.3055 10.073L19.598 9.36601L25.2555 3.70901ZM17.477 11.487L17.831 11.841C17.9247 11.9347 18.0519 11.9874 18.1845 11.9874C18.3171 11.9874 18.4442 11.9347 18.538 11.841L19.598 10.78L21.72 12.902L20.659 13.962C20.5652 14.0558 20.5126 14.1829 20.5126 14.3155C20.5126 14.4481 20.5652 14.5752 20.659 14.669L21.0125 15.023L17.477 11.4875V11.487ZM8.86548 11.052C8.23301 11.4585 7.48097 11.6375 6.73319 11.5595C5.98541 11.4816 5.28648 11.1513 4.75148 10.623C4.39307 10.2604 4.12159 9.82122 3.95748 9.33851L3.02248 6.52851C2.99938 6.45914 2.99188 6.38553 3.00052 6.31292C3.00916 6.24032 3.03374 6.17052 3.07248 6.10851L5.53498 8.57501C5.82093 8.84767 6.20087 8.99978 6.59598 8.99978C6.99109 8.99978 7.37103 8.84767 7.65698 8.57501L9.07198 7.16001C9.21145 7.0207 9.32208 6.85527 9.39757 6.67317C9.47306 6.49108 9.51191 6.29589 9.51191 6.09876C9.51191 5.90164 9.47306 5.70645 9.39757 5.52435C9.32208 5.34226 9.21145 5.17682 9.07198 5.03751L6.60498 2.57601C6.66708 2.53749 6.73687 2.51305 6.80943 2.50442C6.882 2.49578 6.95557 2.50315 7.02498 2.52601L9.83148 3.46001C10.3152 3.62389 10.7554 3.89537 11.119 4.25401C11.6474 4.78911 11.9778 5.48818 12.0559 6.23614C12.1339 6.98409 11.955 7.73634 11.5485 8.36901C11.4861 8.46512 11.4586 8.57975 11.4706 8.6937C11.4826 8.80766 11.5334 8.91403 11.6145 8.99501L13.3265 10.707C12.7872 10.7753 12.286 11.0209 11.9017 11.4052C11.5173 11.7895 11.2717 12.2908 11.2035 12.83L9.49148 11.118C9.4105 11.0369 9.30413 10.9862 9.19017 10.9741C9.07621 10.9621 8.96159 10.9896 8.86548 11.052ZM12.608 14.2345C12.3347 13.9516 12.1836 13.5727 12.187 13.1794C12.1904 12.7861 12.3481 12.4099 12.6263 12.1318C12.9044 11.8537 13.2806 11.6959 13.6739 11.6925C14.0672 11.6891 14.4461 11.8403 14.729 12.1135L16.498 13.88L14.376 16.002L12.608 14.2345ZM7.22398 25.9845C7.17531 26.0332 7.13722 26.0914 7.1121 26.1555C7.08698 26.2196 7.07536 26.2882 7.07798 26.357L7.12298 27.554L4.55498 29.352L3.14798 27.9425L4.92698 25.359L6.13948 25.4215C6.2094 25.4252 6.27931 25.4141 6.34468 25.3891C6.41006 25.364 6.46944 25.3255 6.51898 25.276L18.1845 13.6085L18.8915 14.316L7.22398 25.9845ZM18.62 16.002L20.388 17.77C20.6655 18.0521 20.8202 18.4325 20.8186 18.8282C20.8169 19.2239 20.659 19.6029 20.3791 19.8827C20.0993 20.1624 19.7202 20.3203 19.3245 20.3219C18.9288 20.3234 18.5485 20.1686 18.2665 19.891L16.498 18.124L18.62 16.002ZM29.924 25.895L27.462 23.429C27.1761 23.1561 26.796 23.0038 26.4007 23.0038C26.0055 23.0038 25.6254 23.1561 25.3395 23.429L23.9245 24.844C23.6437 25.1258 23.486 25.5074 23.486 25.9053C23.486 26.3031 23.6437 26.6847 23.9245 26.9665L26.39 29.4285C26.328 29.4673 26.2582 29.4919 26.1856 29.5006C26.113 29.5092 26.0393 29.5017 25.97 29.4785L23.1645 28.5445C22.6885 28.385 22.2553 28.1188 21.8981 27.7662C21.5408 27.4136 21.269 26.9839 21.1033 26.51C20.9377 26.0362 20.8826 25.5307 20.9423 25.0323C21.0021 24.5339 21.175 24.0558 21.448 23.6345C21.5104 23.5385 21.538 23.4239 21.5261 23.3099C21.5142 23.196 21.4635 23.0896 21.3825 23.0085L19.67 21.2965C20.2091 21.228 20.7103 20.9824 21.0947 20.5982C21.4791 20.2141 21.7251 19.7131 21.794 19.174L23.5055 20.8855C23.5864 20.9665 23.6927 21.0172 23.8066 21.0292C23.9204 21.0412 24.0349 21.0138 24.131 20.9515C24.5521 20.679 25.0299 20.5063 25.5279 20.4467C26.0259 20.387 26.531 20.4419 27.0045 20.6072C27.4781 20.7725 27.9076 21.0439 28.2603 21.4005C28.6129 21.7571 28.8795 22.1897 29.0395 22.665L29.9745 25.4745C29.9976 25.544 30.005 25.6177 29.9963 25.6904C29.9875 25.7631 29.9629 25.833 29.924 25.895Z" fill="white"/>
</g>
</g>
</svg>
