<svg width="33" height="32" viewBox="0 0 33 32" fill="none" xmlns="http://www.w3.org/2000/svg">
<g id="Frame" clip-path="url(#clip0_11608_302)">
<g id="Group">
<path id="Vector" d="M32.668 3.534V1.03226H26.9905C26.3187 1.03226 25.7509 1.46516 25.5372 2.06452H21.7075L19.8663 2.9849L18.1922 1.31052C18.077 0.570323 17.4407 0 16.668 0H11.5067C10.6531 0 9.95829 0.694839 9.95829 1.54839V2.06452H8.4099C7.55636 2.06452 6.86152 2.75935 6.86152 3.6129V9.80645C6.86152 10.66 7.55636 11.3548 8.4099 11.3548H9.95829V11.871C9.95829 12.0526 9.99532 12.225 10.0533 12.3871H5.82926C5.82926 11.8178 5.36629 11.3548 4.797 11.3548H1.70023C1.13094 11.3548 0.667969 11.8178 0.667969 12.3871V13.4194C0.667969 13.9886 1.13094 14.4516 1.70023 14.4516H4.797C5.36629 14.4516 5.82926 13.9886 5.82926 13.4194H10.9905V13.9355C10.9905 14.1449 11.0334 14.3448 11.1093 14.5275L2.94823 29.4101C2.80697 29.6679 2.73278 29.9572 2.73248 30.2512C2.73248 31.2155 3.517 32 4.48119 32H4.59216C4.90239 31.9997 5.20698 31.9171 5.47477 31.7604C5.74257 31.6038 5.96395 31.3789 6.11629 31.1086L12.0228 20.6086V30.2512C12.0228 31.2155 12.8073 32 13.7715 32H14.4031C15.3673 32 16.1518 31.2155 16.1518 30.2513V20.6086L22.0583 31.1086C22.2105 31.3789 22.4319 31.6038 22.6996 31.7605C22.9674 31.9171 23.2719 31.9998 23.5821 32H23.693C24.6576 32 25.4422 31.2155 25.4422 30.2513C25.4422 29.9582 25.3673 29.6671 25.2269 29.4105L17.0654 14.5275C17.1437 14.3399 17.1841 14.1387 17.1841 13.9355V13.3243C17.7111 13.1366 18.104 12.6752 18.1922 12.1088L19.8664 10.4345L21.7075 11.3548H25.5371C25.7508 11.9542 26.3186 12.3871 26.9905 12.3871H32.6679V9.88535L29.5711 9.36923V9.17716L31.6356 8.66103V4.75832L29.5711 4.24219V4.05013L32.668 3.534ZM4.797 13.4194H1.70023V12.3871H4.797V13.4194ZM20.2809 3.93194L21.3131 3.41581V10.0035L20.2809 9.48742V3.93194ZM22.3454 9.29032H25.4422V10.3226H22.3454V9.29032ZM22.3454 8.25806V7.22581H25.4422V8.25806H22.3454ZM22.3454 6.19355V5.16129H25.4422V6.19355H22.3454ZM22.3454 4.12903V3.09677H25.4422V4.12903H22.3454ZM13.0551 1.03226H14.0873V2.06452H13.0551V1.03226ZM8.4099 10.3226C8.12565 10.3226 7.89377 10.0907 7.89377 9.80645V3.6129C7.89377 3.32864 8.12565 3.09677 8.4099 3.09677H9.95829V10.3226H8.4099ZM15.1196 15.4839V28.9032H13.0551V15.4839H15.1196ZM15.6357 14.4516H12.5389C12.2547 14.4516 12.0228 14.2197 12.0228 13.9355V13.4194H16.1518V13.9355C16.1518 14.2197 15.92 14.4516 15.6357 14.4516ZM15.1196 12.3871H13.0551V7.22581H15.1196V12.3871ZM4.59261 30.9677H4.48119C4.08636 30.9677 3.76474 30.6462 3.76474 30.2513C3.76474 30.1414 3.79319 30.034 3.84158 29.9355H5.5919L5.21661 30.6023C5.1543 30.7131 5.06369 30.8052 4.95405 30.8694C4.84441 30.9337 4.71967 30.9676 4.59261 30.9677ZM6.17248 28.9032H4.40358L11.8539 15.317C11.9086 15.3445 11.9646 15.3682 12.0228 15.3888V18.5033L6.17248 28.9032ZM14.4031 30.9677H13.7715C13.3767 30.9677 13.0551 30.6462 13.0551 30.2513V29.9355H15.1196V30.2513C15.1196 30.6461 14.798 30.9677 14.4031 30.9677ZM16.1518 15.3888C16.21 15.3682 16.266 15.3445 16.3207 15.317L23.7715 28.9032H22.0022L16.1518 18.5028V15.3888ZM23.6935 30.9677H23.5825C23.3244 30.9677 23.0851 30.8279 22.9585 30.6023L22.5828 29.9355H24.3331C24.3815 30.0335 24.4099 30.1414 24.4099 30.2513C24.4099 30.6461 24.0884 30.9677 23.6935 30.9677ZM17.1841 11.871C17.1841 12.1552 16.9522 12.3871 16.668 12.3871H16.1518V6.19355H12.0228V12.3871H11.5067C11.2224 12.3871 10.9905 12.1552 10.9905 11.871V1.54839C10.9905 1.26413 11.2224 1.03226 11.5067 1.03226H12.0228V3.09677H15.1196V1.03226H16.668C16.9522 1.03226 17.1841 1.26413 17.1841 1.54839V11.871ZM19.2486 9.59271L18.2164 10.625V2.79439L19.2486 3.82665V9.59271ZM30.6035 5.56432V7.8551L28.5389 8.37123V10.2437L31.6357 10.7598V11.3548H26.9905C26.7063 11.3548 26.4744 11.123 26.4744 10.8387V2.58065C26.4744 2.29639 26.7063 2.06452 26.9905 2.06452H31.6357V2.65955L28.5389 3.17568V5.04813L30.6035 5.56432Z" fill="#0065FF"/>
</g>
</g>
<defs>
<clipPath id="clip0_11608_302">
<rect width="32" height="32" fill="white" transform="translate(0.667969)"/>
</clipPath>
</defs>
</svg>
